<?xml version="1.0" encoding="UTF-8"?>
<svg width="232px" height="169px" viewBox="0 0 232 169" version="1.1" xmlns="http://www.w3.org/2000/svg" xmlns:xlink="http://www.w3.org/1999/xlink">
    <!-- Generator: Sketch 51.1 (57501) - http://www.bohemiancoding.com/sketch -->
    <title>Group 170</title>
    <desc>Created with Sketch.</desc>
    <defs>
        <path d="M1.66345992,0.731497606 L1.66345992,182.739196 L64.7315353,182.739196 C64.7315353,182.739196 63.8042042,179.31112 67.7875852,179.31112 C70.7097936,179.31112 71.104945,182.739196 71.104945,182.739196 L228.716179,182.739196 L228.716179,0.731497606" id="path-1"></path>
        <path d="M1.66345992,0.731497606 L1.66345992,182.739196 L64.7315353,182.739196 C64.7315353,182.739196 63.8042042,179.31112 67.7875852,179.31112 C70.7097936,179.31112 71.104945,182.739196 71.104945,182.739196 L228.716179,182.739196 L228.716179,0.731497606" id="path-3"></path>
        <polygon id="path-5" points="0 1.61715906 50.5491904 1.61715906 50.5491904 23.6263617 0 23.6263617"></polygon>
    </defs>
    <g id="Page-1" stroke="none" stroke-width="1" fill="none" fill-rule="evenodd">
        <g id="pc耐心评测" transform="translate(-844.000000, -445.000000)">
            <g id="Group-170" transform="translate(844.000000, 427.000000)">
                <g id="Group-7" transform="translate(3.557252, 0.000000)">
                    <g id="Group-3">
                        <mask id="mask-2" fill="white">
                            <use xlink:href="#path-1"></use>
                        </mask>
                        <g id="Clip-2"></g>
                        <path d="M107.627769,213.465261 C53.4442268,213.465261 9.36891221,169.682122 9.36891221,115.867985 C9.36891221,62.0506825 53.4442268,18.2675437 107.627769,18.2675437 C161.804938,18.2675437 205.883439,62.0506825 205.883439,115.867985 C205.883439,169.682122 161.804938,213.465261 107.627769,213.465261" id="Fill-1" fill="#FFEBEB" mask="url(#mask-2)"></path>
                    </g>
                    <g id="Group-6">
                        <mask id="mask-4" fill="white">
                            <use xlink:href="#path-3"></use>
                        </mask>
                        <g id="Clip-5"></g>
                        <path d="M190.843148,115.867985 C190.843148,161.518681 153.587382,198.524803 107.628725,198.524803 C61.6636946,198.524803 24.4047416,161.518681 24.4047416,115.867985 C24.4047416,70.2141234 61.6636946,33.2080017 107.628725,33.2080017 C153.587382,33.2080017 190.843148,70.2141234 190.843148,115.867985" id="Fill-4" fill="#FFD8D7" mask="url(#mask-4)"></path>
                    </g>
                </g>
                <g id="Group-169" transform="translate(0.000000, 49.801527)">
                    <path d="M175.886274,136.529228 L192.742068,136.529228 C193.868767,136.529228 193.871959,134.776028 192.742068,134.776028 L175.886274,134.776028 C174.756384,134.776028 174.756384,136.529228 175.886274,136.529228" id="Fill-8" fill="#CC5E5E"></path>
                    <path d="M155.535479,136.529228 L167.511041,136.529228 C168.634548,136.529228 168.63774,134.776028 167.511041,134.776028 L155.535479,134.776028 C154.408781,134.776028 154.405589,136.529228 155.535479,136.529228" id="Fill-10" fill="#CC5E5E"></path>
                    <path d="M75.1425,136.529228 L150.752596,136.529228 C151.879295,136.529228 151.882486,134.776028 150.752596,134.776028 L75.1425,134.776028 C74.0158014,134.776028 74.0126096,136.529228 75.1425,136.529228" id="Fill-12" fill="#CC5E5E"></path>
                    <path d="M40.7654247,136.529228 L67.0976164,136.529228 C68.2275068,136.529228 68.2275068,134.776028 67.0976164,134.776028 L40.7654247,134.776028 C39.638726,134.776028 39.6355342,136.529228 40.7654247,136.529228" id="Fill-14" fill="#CC5E5E"></path>
                    <path d="M68.1074959,135.655822 C68.3117699,131.817304 73.8622767,131.807724 74.0665507,135.655822 C74.1303863,136.779913 75.882674,136.7863 75.8220301,135.655822 C75.6815918,133.088294 73.7633315,130.919947 71.0886192,130.919947 C68.4139068,130.919947 66.4924548,133.088294 66.3520164,135.655822 C66.2945644,136.783107 68.0436603,136.779913 68.1074959,135.655822" id="Fill-16" fill="#CC5E5E"></path>
                    <path d="M172.68811,135.652948 C172.68811,136.237348 172.212534,136.716364 171.625247,136.716364 C171.044342,136.716364 170.568767,136.237348 170.568767,135.652948 C170.568767,135.071741 171.044342,134.592725 171.625247,134.592725 C172.212534,134.592725 172.68811,135.071741 172.68811,135.652948" id="Fill-18" fill="#CC5E5E"></path>
                    <path d="M37.7045068,135.652948 C37.7045068,136.237348 37.2289315,136.716364 36.6416438,136.716364 C36.0607397,136.716364 35.5851644,136.237348 35.5851644,135.652948 C35.5851644,135.071741 36.0607397,134.592725 36.6416438,134.592725 C37.2289315,134.592725 37.7045068,135.071741 37.7045068,135.652948" id="Fill-20" fill="#CC5E5E"></path>
                    <g id="Group-24" transform="translate(0.000000, 9.580326)">
                        <mask id="mask-6" fill="white">
                            <use xlink:href="#path-5"></use>
                        </mask>
                        <g id="Clip-23"></g>
                        <path d="M45.123163,19.9123886 C45.123163,17.8590053 43.4602452,16.195222 41.4111219,16.195222 L36.6426014,16.195222 C36.064889,15.2435763 35.7201767,14.1546126 35.7201767,12.9921997 C35.7201767,11.513636 36.2563959,10.1564231 37.1532863,9.05149216 L46.8339575,9.05149216 C48.8862726,9.05149216 50.5491904,7.38451541 50.5491904,5.33751905 C50.5491904,3.28413581 48.8862726,1.61715906 46.8339575,1.61715906 L9.13583425,1.61715906 C7.08671096,1.61715906 5.42379315,3.28413581 5.42379315,5.33751905 C5.42379315,7.38451541 7.08671096,9.05149216 9.13583425,9.05149216 L20.6932726,9.05149216 C21.5965466,10.1532297 22.1614918,11.5040557 22.1614918,12.9921997 C22.1614918,14.1609994 21.8008205,15.2403829 21.2263,16.195222 L3.70980685,16.195222 C1.66387534,16.195222 -0.00223424658,17.8590053 -0.00223424658,19.9123886 C-0.00223424658,21.9625784 1.66387534,23.6263617 3.70980685,23.6263617 L41.4111219,23.6263617 C43.4602452,23.6263617 45.123163,21.9625784 45.123163,19.9123886" id="Fill-22" fill="#FFD8D7" mask="url(#mask-6)"></path>
                    </g>
                    <path d="M53.794274,37.7787388 L24.9182329,37.7787388 C23.6957808,37.7787388 22.703137,38.7687059 22.703137,39.9917942 C22.703137,41.2148825 23.6957808,42.208043 24.9182329,42.208043 L53.794274,42.208043 C55.016726,42.208043 56.0093699,41.2148825 56.0093699,39.9917942 C56.0093699,38.7687059 55.016726,37.7787388 53.794274,37.7787388" id="Fill-25" fill="#FFD8D7"></path>
                    <path d="M29.6691986,13.7688448 C29.6691986,14.5320774 29.0468014,15.1547986 28.280774,15.1547986 L19.484226,15.1547986 C18.7181986,15.1547986 18.0989932,14.5320774 18.0989932,13.7688448 C18.0989932,13.0024187 18.7181986,12.3796975 19.484226,12.3796975 L28.280774,12.3796975 C29.0468014,12.3796975 29.6691986,13.0024187 29.6691986,13.7688448" id="Fill-27" fill="#FFFFFF"></path>
                    <path d="M14.9164685,13.7688448 C14.9164685,14.5320774 14.2940712,15.1547986 13.5248521,15.1547986 L10.5756466,15.1547986 C9.80961918,15.1547986 9.1904137,14.5320774 9.1904137,13.7688448 C9.1904137,13.0024187 9.80961918,12.3796975 10.5756466,12.3796975 L13.5248521,12.3796975 C14.2940712,12.3796975 14.9164685,13.0024187 14.9164685,13.7688448" id="Fill-29" fill="#FFFFFF"></path>
                    <path d="M68.7059548,21.6930519 C68.7059548,23.8198843 67.2249685,25.5379561 65.3992699,25.5379561 L37.1743521,25.5379561 C35.3486534,25.5379561 33.8676671,23.8198843 33.8676671,21.6930519 C33.8676671,19.5694129 35.3486534,17.8513411 37.1743521,17.8513411 L65.3992699,17.8513411 C67.2249685,17.8513411 68.7059548,19.5694129 68.7059548,21.6930519" id="Fill-31" fill="#FFFFFF"></path>
                    <path d="M186.440216,92.4290707 C186.440216,90.3756875 188.106326,88.7119042 190.158641,88.7119042 L194.92397,88.7119042 C195.501682,87.7602585 195.846395,86.6712947 195.846395,85.5088818 C195.846395,84.0303181 195.306984,82.6731053 194.416477,81.5681743 L184.735805,81.5681743 C182.68349,81.5681743 181.020573,79.9011976 181.020573,77.8542012 C181.020573,75.800818 182.68349,74.1338412 184.735805,74.1338412 L222.433929,74.1338412 C224.483052,74.1338412 226.14597,75.800818 226.14597,77.8542012 C226.14597,79.9011976 224.483052,81.5681743 222.433929,81.5681743 L210.870107,81.5681743 C209.966833,82.6699118 209.405079,84.0207378 209.405079,85.5088818 C209.405079,86.6776816 209.765751,87.757065 210.343463,88.7119042 L227.853573,88.7119042 C229.905888,88.7119042 231.565614,90.3756875 231.565614,92.4290707 C231.565614,94.4792605 229.905888,96.1430439 227.853573,96.1430439 L190.158641,96.1430439 C188.106326,96.1430439 186.440216,94.4792605 186.440216,92.4290707" id="Fill-33" fill="#FFD8D7"></path>
                    <path d="M177.77517,100.715095 L206.651211,100.715095 C207.873663,100.715095 208.859923,101.705062 208.859923,102.92815 C208.859923,104.151238 207.873663,105.144399 206.651211,105.144399 L177.77517,105.144399 C176.552718,105.144399 175.560074,104.151238 175.560074,102.92815 C175.560074,101.705062 176.552718,100.715095 177.77517,100.715095" id="Fill-35" fill="#FFD8D7"></path>
                    <path d="M201.900564,76.7052008 C201.900564,77.4684334 202.522962,78.0911546 203.288989,78.0911546 L212.079153,78.0911546 C212.851564,78.0911546 213.47077,77.4684334 213.47077,76.7052008 C213.47077,75.9387747 212.851564,75.3160535 212.079153,75.3160535 L203.288989,75.3160535 C202.522962,75.3160535 201.900564,75.9387747 201.900564,76.7052008" id="Fill-37" fill="#FFFFFF"></path>
                    <path d="M216.653295,76.7052008 C216.653295,77.4684334 217.275692,78.0911546 218.038527,78.0911546 L220.987733,78.0911546 C221.760144,78.0911546 222.372966,77.4684334 222.372966,76.7052008 C222.372966,75.9387747 221.760144,75.3160535 220.987733,75.3160535 L218.038527,75.3160535 C217.275692,75.3160535 216.653295,75.9387747 216.653295,76.7052008" id="Fill-39" fill="#FFFFFF"></path>
                    <path d="M162.860297,84.6294079 C162.860297,86.7562403 164.338092,88.4743121 166.170174,88.4743121 L194.3919,88.4743121 C196.22079,88.4743121 197.701777,86.7562403 197.701777,84.6294079 C197.701777,82.5057689 196.22079,80.7876971 194.3919,80.7876971 L166.170174,80.7876971 C164.338092,80.7876971 162.860297,82.5057689 162.860297,84.6294079" id="Fill-41" fill="#FFFFFF"></path>
                    <path d="M117.10963,86.9839327 L120.039685,94.2426265 L120.381205,94.1180823 C120.732301,94.0606003 120.326945,93.4282988 120.674849,93.3708168 C128.638342,92.0136039 134.543137,90.1039256 142.503438,85.700169 C154.147055,87.022254 171.944425,83.1965104 174.829795,70.6877979 C178.28011,55.6977809 168.522836,42.5950882 157.073918,36.5435155 C151.421274,25.3441142 137.99026,10.3125824 112.979466,9.50783503 C88.9613151,8.72224828 75.6069041,23.2396359 70.729863,30.5621985 C70.0180959,31.6447753 69.3414384,32.7592866 68.7286164,33.8993454 C68.7286164,33.8993454 52.9324932,71.8214698 66.1592329,86.718877 C99.9410411,108.249063 116.966,86.5943328 117.10963,86.9839327" id="Fill-43" fill="#FFD3B6"></path>
                    <path d="M67.3376384,89.8717624 C74.3946658,95.1153942 83.2039808,96.2011645 95.782789,96.4151251 C95.782789,96.4151251 115.492036,85.1422747 117.585844,81.6901638 C118.208241,80.7576787 118.782762,79.748551 119.267912,78.8128725 C113.70783,67.5080876 116.618734,67.1919369 121.313844,70.1650314 C123.465104,60.2845217 117.553926,38.6872731 97.3978301,31.5403498 C83.8263781,26.7310261 74.7936384,35.3788671 74.9436521,39.6421123 C75.0330219,42.081902 71.8986932,42.6631085 72.1827616,39.9007811 C72.3838438,35.3501262 67.998337,32.5430906 65.1608438,38.8213977 L64.3405562,41.7018824 C62.173337,46.4792717 62.6074192,47.0381241 61.9850219,51.9624117 C61.5094466,55.6157094 61.4807205,59.0837875 61.8796932,62.0696558 C58.3815014,67.7667565 58.3304329,73.4734374 60.2327342,78.0017382 C61.3626247,80.7097771 65.1863781,88.265461 67.3376384,89.8717624" id="Fill-45" fill="#FFFFFF"></path>
                    <path d="M97.3758068,92.0362774 L93.0413685,90.4906514 L92.8434781,90.4044285 C92.6647384,90.762094 92.6519712,91.174048 92.7892178,91.5572611 L93.5648205,93.6681263 L94.4074507,95.970598 L98.1769438,106.227934 C98.8504096,105.407219 99.7792178,104.417252 100.861232,103.417705 L97.286437,93.2210444 C97.1459986,92.8122838 97.1619575,92.3971363 97.3758068,92.0362774" id="Fill-47" fill="#FFE7A5"></path>
                    <path d="M93.0400918,90.489374 L97.3745301,92.035 C97.5181603,91.6198525 97.9203247,91.2494133 98.424626,91.1025149 L115.848558,85.9067847 C116.183695,85.5427323 116.522023,85.1818734 116.860352,84.7539521 C115.210201,84.1727457 113.496215,83.5915392 112.800407,83.7735654 L93.9305986,89.4419251 C93.3879959,89.5856299 93.0241329,89.9464889 92.8422014,90.4063446 L93.0400918,90.489374 Z" id="Fill-49" fill="#FFFFFF"></path>
                    <path d="M100.860593,103.418982 C105.903607,98.7437831 114.7991,93.6438561 118.79521,100.187219 C120.671977,99.8966156 122.717908,99.986032 124.457429,100.50337 L122.156155,93.9344593 L119.570812,86.5448344 C119.286744,85.660251 118.249415,85.1876215 117.298264,85.4750313 L115.846004,85.9093395 L98.4252644,91.1050697 C97.920963,91.2487746 97.5187986,91.6192138 97.3751685,92.0375548 C97.1613192,92.3984137 97.1453603,92.8135612 97.2857986,93.2223218 L100.860593,103.418982 Z" id="Fill-51" fill="#FFFCD7"></path>
                    <path d="M127.551222,116.277057 L127.710811,116.241929 C128.65877,115.951326 129.172647,115.009261 128.853468,114.121484 L127.723578,109.146101 C123.401907,110.761983 117.053455,110.854593 114.008496,108.689439 C111.289099,110.477767 107.813249,112.416186 104.356551,113.268835 L106.338647,121.590945 C106.450359,121.935837 106.683359,122.21686 106.980195,122.462755 C107.082332,122.526623 107.213195,122.584105 107.372784,122.609653 C107.762181,122.788486 108.202647,122.804453 108.617578,122.695876 L113.01266,121.361017 L127.551222,116.277057 Z" id="Fill-53" fill="#FFFCD7"></path>
                    <path d="M98.1769438,106.228892 L94.4074507,95.971556 C92.393437,101.378053 92.9743411,108.135377 94.8638753,111.134019 C94.9692041,111.351173 95.1032589,111.542779 95.2660397,111.696065 C95.4064781,111.913219 95.6011767,112.101632 95.8022589,112.251724 C97.2066425,113.32472 98.8504096,113.778189 100.609081,113.781382 C101.828341,113.835671 103.092286,113.631291 104.359423,113.267238 C107.816122,112.414589 111.288779,110.47617 114.008177,108.691036 C113.318752,108.202439 112.788916,107.614846 112.476122,106.886741 C111.419642,103.153607 114.786971,100.80004 118.795848,100.1869 C114.799738,93.6467302 105.904245,98.7434637 100.861232,103.418663 C99.7792178,104.41821 98.8504096,105.408177 98.1769438,106.228892" id="Fill-55" fill="#FFD3B6"></path>
                    <path d="M100.676747,113.97235 L101.816212,119.924926 C102.097089,120.745641 106.431527,122.323201 106.951788,122.495647 L106.980514,122.463713 C106.683678,122.217818 106.450678,121.936795 106.338966,121.591903 L104.35687,113.266599 C103.092925,113.633845 101.825788,113.835032 100.609719,113.780744 L100.676747,113.97235 Z" id="Fill-57" fill="#FFE7A5"></path>
                    <path d="M101.817489,119.925884 L100.678023,113.973308 L100.607804,113.781702 C98.8491329,113.778508 97.2085575,113.325039 95.8009822,112.252043 C95.6030918,112.101951 95.4052014,111.913538 95.264763,111.696384 C94.6455575,113.059984 94.0806123,114.391649 93.5220507,115.748862 C91.5112288,120.548605 89.5323247,125.97107 88.4152014,129.557305 C85.5904753,131.95558 84.9265849,133.98661 88.7982151,134.210151 C93.2762836,134.40495 98.2586534,135.877127 100.553544,132.92 C102.015379,131.051836 105.219927,127.171804 107.696749,123.888946 L108.730886,123.055457 C108.571297,123.02991 107.080736,122.525346 106.978599,122.464671 L106.949873,122.496605 C106.429612,122.324159 102.098366,120.746599 101.817489,119.925884" id="Fill-59" fill="#FFD3B6"></path>
                    <path d="M95.2657205,111.695745 C95.1029397,111.54246 94.9688849,111.354047 94.8635562,111.1337 L94.5348027,111.785162 C92.3484329,113.135988 88.8502411,112.781516 88.5565973,109.814808 C88.2821041,107.208959 84.0881041,107.030127 84.7360356,110.970834 C85.3552411,115.007345 89.0608986,116.827607 93.5230082,115.751417 C94.0815699,114.39101 94.6465151,113.059345 95.2657205,111.695745" id="Fill-61" fill="#FFD3B6"></path>
                    <path d="M113.013937,121.360378 L112.429841,122.264122 C114.143827,126.549722 112.819238,132.652389 113.757622,133.802029 C115.586512,135.976763 124.347951,135.322107 127.099266,134.459878 C130.42191,133.706225 129.569704,132.138245 127.526964,131.250468 C127.329074,129.241793 128.545142,122.861296 127.552499,116.276419 L113.013937,121.360378 Z" id="Fill-63" fill="#FFD3B6"></path>
                    <path d="M118.795848,100.188177 C114.786971,100.798124 111.419642,103.154885 112.479314,106.888018 C112.788916,107.61293 113.318752,108.203716 114.008177,108.68912 C117.053136,110.854273 123.401588,110.764857 127.723259,109.145782 C130.532026,108.120687 132.517314,106.456904 132.18856,104.326878 C131.658725,100.893928 127.681766,96.8446431 123.551601,93.6959092 C123.203697,93.737424 122.855793,93.7853256 122.501505,93.8268403 L122.156793,93.9354174 L124.454875,100.504328 C122.718547,99.9869901 120.672615,99.8975737 118.795848,100.188177" id="Fill-65" fill="#FFD3B6"></path>
                    <path d="M62.9802192,51.4693443 C51.5376849,62.4994931 54.5283836,75.7522777 60.2703973,78.9553 L61.6524384,79.3417065 C60.187411,74.3918713 58.2372329,67.6249676 62.0673699,62.0396375 C61.9109726,58.871743 62.2301507,55.2439928 62.9802192,51.4693443" id="Fill-67" fill="#FFD3B6"></path>
                    <path d="M137.921637,51.1078466 L139.983527,49.0416896 C139.983527,49.0416896 155.932856,48.6265422 159.884281,63.0034183 C163.835705,77.3802944 147.069281,81.2826806 136.373623,75.9240848 L137.634377,73.8866688 C137.634377,73.8866688 142.058185,74.7967998 141.445363,72.4208789 C140.835733,70.0481515 138.247199,68.4035288 138.247199,68.4035288 C138.247199,68.4035288 144.116884,65.0088999 141.92413,63.0832543 C139.731377,61.1608022 138.591911,62.9331626 138.591911,62.9331626 L137.921637,51.1078466 Z" id="Fill-69" fill="#FFFFFF"></path>
                    <path d="M94.8731315,74.784026 C95.2657205,79.3219072 99.2650219,82.6877951 103.800542,82.2918083 C108.332871,81.8990149 111.690625,77.8944386 111.298036,73.3597509 C110.902255,68.8218697 106.909337,65.4591752 102.373816,65.8519686 C97.8414877,66.2479554 94.4773507,70.2493383 94.8731315,74.784026" id="Fill-71" fill="#FFDDDC"></path>
                    <path d="M63.2234329,83.8374342 C64.793789,82.1800378 65.6811041,79.8935333 65.4672548,77.4409698 C65.1640356,74.0527278 62.8563781,71.315948 59.8178027,70.3164006 C58.7900493,69.9778957 61.8892685,85.2457422 63.2234329,83.8374342" id="Fill-73" fill="#FFDDDC"></path>
                    <path d="M141.340992,32.2151241 C141.340992,32.2151241 139.569553,34.9391302 141.733581,35.9259038 C143.897608,36.9190642 164.96017,38.0623165 169.888279,57.5966015 C174.484444,75.8151885 159.961841,86.4301899 135.503225,79.2768796 L135.372362,83.2750691 C135.372362,83.2750691 129.917608,87.1934225 119.863499,88.8699796 L122.123279,92.7851395 C122.123279,92.7851395 136.339471,88.3111272 142.5028,85.6988916 C142.5028,85.6988916 161.637526,88.7677894 171.353307,76.9871817 C183.964033,61.6874008 163.073827,29.6092754 141.340992,32.2151241" id="Fill-75" fill="#FFD3B6"></path>
                    <path d="M98.0958726,14.1961273 C98.0958726,14.1961273 131.012708,5.61215507 150.166585,33.5100649 L155.812845,35.1770416 C155.812845,35.1770416 140.588051,3.21707353 100.090736,10.4055116 L98.0958726,14.1961273 Z" id="Fill-77" fill="#FFD3B6"></path>
                    <path d="M87.3236123,18.7867003 C87.3236123,18.7867003 75.6321192,25.4130925 71.4285438,34.6102056 L67.4547767,35.2808285 C67.4547767,35.2808285 75.8395849,21.9003063 83.1359959,17.3911661 L87.3236123,18.7867003 Z" id="Fill-79" fill="#FFD3B6"></path>
                    <path d="M64.5042945,57.8594218 C64.5042945,57.8594218 60.9135411,61.9757686 60.5624452,67.0469546 C60.201774,72.1181406 62.9722397,75.2189728 62.9722397,75.2189728 L63.3967466,79.9963621 C63.3967466,79.9963621 55.410911,72.0159505 58.8229247,62.8475783 C61.9061849,54.5574027 64.5649384,51.7312065 64.5649384,51.7312065 L64.5042945,57.8594218 Z" id="Fill-81" fill="#FFD3B6"></path>
                    <path d="M97.5628452,113.863134 L91.9963795,129.485453 C91.9963795,129.485453 87.0427356,132.579898 92.1623521,134.272423 C92.1623521,134.272423 84.4350507,134.007367 85.6862288,131.829439 C86.9437904,129.654705 88.4152014,129.555709 88.4152014,129.555709 L94.7828041,111.6884 L97.5628452,113.863134 Z" id="Fill-83" fill="#FFD3B6"></path>
                    <path d="M127.551222,116.277057 L127.525688,131.247914 C127.525688,131.247914 130.436592,132.959599 129.667373,133.783507 C128.898153,134.607415 123.069962,135.341906 123.069962,135.341906 C123.069962,135.341906 124.758414,123.050348 123.484893,116.970034 L127.551222,116.277057 Z" id="Fill-85" fill="#FFD3B6"></path>
                    <path d="M125.129618,95.079947 C125.129618,95.079947 130.657782,101.010169 128.62781,104.012004 C122.984741,102.341834 115.247864,101.808529 112.937015,104.28664 C112.937015,104.28664 113.35833,100.467284 118.797125,100.189454 C124.229536,99.9052379 124.456152,100.502412 124.456152,100.502412 L122.154878,93.9366947 C122.154878,93.9366947 123.217741,93.8153439 125.129618,95.079947" id="Fill-87" fill="#FFD3B6"></path>
                    <path d="M115.741314,100.724675 C115.741314,100.724675 111.579232,99.8752196 108.585341,101.503875 C104.400916,103.777606 96.8842726,109.627992 96.8842726,109.627992 C96.8842726,109.627992 96.7214918,107.983369 98.1769438,106.230169 C99.6355877,104.473776 110.276985,96.65623 114.017752,97.0586037 C117.761711,97.4609774 118.795848,100.188177 118.795848,100.188177 L115.741314,100.724675 Z" id="Fill-89" fill="#FFD3B6"></path>
                    <path d="M144.224127,85.0225206 C144.437977,85.4600222 144.498621,85.8655893 144.364566,85.9326516 C137.307538,89.4071165 129.870689,92.2460865 122.197648,94.1046698 C122.050826,94.1397977 121.836977,93.788519 121.725264,93.319083 C121.61036,92.8464536 121.635895,92.4344996 121.779525,92.3993717 C129.331278,90.566336 136.605347,87.7912349 143.598538,84.3518978 C143.732593,84.2848355 144.01347,84.585019 144.224127,85.0225206" id="Fill-91" fill="#CC5E5E"></path>
                    <path d="M94.0470986,96.745327 C94.0694411,97.2243433 93.3097973,97.6458777 92.3586466,97.6394908 C86.1985096,97.5436875 80.0383726,96.608009 74.2261397,94.3885668 C71.3407699,93.2517014 68.5351945,91.7412033 66.1700849,89.6015972 C63.8400849,87.3981221 62.0877973,84.7667259 60.7983178,81.8830477 C58.2640438,76.0869504 58.1555233,69.409463 60.0929342,63.4664674 C60.2014548,63.0864478 60.3387014,62.7223954 60.4791397,62.3551495 L60.6866055,61.8058775 C60.7791671,61.4993071 60.7025644,61.8729398 60.7280986,61.6046907 C60.7217151,60.8318777 60.6834137,60.0590647 60.7185233,59.2862517 C60.737674,57.7438192 60.839811,56.2045802 60.9994,54.671728 C61.3121945,51.609217 61.8547973,48.5754471 62.6048658,45.5895788 C64.1337288,39.6465831 66.4509616,33.8185514 70.0480986,28.737785 C73.6420438,23.6921466 78.2286329,19.4161277 83.396126,16.0310791 C93.8013315,9.19072623 106.75677,7.11818234 118.904688,8.84583449 C119.843071,8.9831525 120.526112,9.51645732 120.436742,9.98908675 C120.344181,10.4681031 119.546236,10.7139981 118.642962,10.583067 C106.858907,8.91289677 94.3630849,10.9215718 84.3472767,17.5064493 C79.3680986,20.7637602 74.9315233,24.9024611 71.4812082,29.7532996 C68.0500438,34.5977512 65.790263,40.2341764 64.3092767,46.0206934 C63.5751671,48.9235323 63.0485233,51.8774662 62.7453041,54.8505607 C62.5920986,56.3355113 62.4931534,57.8268487 62.470811,59.3181862 C62.4388932,60.0654516 62.4740027,60.8063302 62.4771945,61.5504022 C62.4740027,61.5951103 62.4931534,61.8505857 62.4740027,62.026225 L62.3207973,62.4509528 L62.1260986,62.965097 C61.9952356,63.3067953 61.8643726,63.651687 61.7654274,64.0061591 C59.9429205,69.5819089 60.0642082,75.8218947 62.4069753,81.1804905 C63.5847425,83.8310474 65.2700027,86.3410928 67.3574274,88.3082531 C69.5023041,90.2498659 72.1195644,91.674141 74.8644959,92.7535245 C80.3926603,94.8675831 86.4187425,95.7968747 92.3714137,95.8830977 C93.2810712,95.8894846 94.0279479,96.2567304 94.0470986,96.745327" id="Fill-93" fill="#CC5E5E"></path>
                    <path d="M134.726664,14.0323037 C132.699884,12.9752744 130.615651,12.0555631 128.470774,11.2635895 C127.411103,10.8739895 126.954678,12.5697073 128.007966,12.9561138 C130.009212,13.6937989 131.949815,14.5592217 133.845733,15.5459953 C134.841568,16.0665263 135.728884,14.5528348 134.726664,14.0323037" id="Fill-95" fill="#CC5E5E"></path>
                    <path d="M138.195811,17.1024789 C138.460729,16.6969118 138.789482,16.4414364 138.926729,16.5340462 C146.089085,21.2763077 152.724797,27.2863656 156.874112,35.0400429 C156.953907,35.1901347 156.669838,35.4903183 156.238948,35.7138592 C155.811249,35.9374002 155.402701,36.0076559 155.322907,35.8671444 C151.374674,28.4775195 144.965578,22.636714 137.959619,17.9998361 C137.825564,17.9104198 137.930893,17.5080461 138.195811,17.1024789" id="Fill-97" fill="#CC5E5E"></path>
                    <path d="M91.6937986,14.5327161 C93.7078123,9.60523501 85.0517027,6.06370777 78.945826,10.8027758 C78.6234562,14.8648341 88.2243329,23.0017244 91.6937986,14.5327161" id="Fill-99" fill="#FFA9A9"></path>
                    <path d="M91.6906068,14.5327161 C92.1438397,14.7115489 92.4183329,15.0372799 92.3034288,15.2608209 C91.7161411,16.6882895 90.5479493,18.1093712 88.9137575,18.7480596 C87.2572233,19.386748 85.4762096,19.0482432 84.0526753,18.396781 C82.6067986,17.7389319 81.3620041,16.7777059 80.3087164,15.6376471 C79.2873466,14.4656538 78.320237,13.2010508 78.1031959,11.3296937 C78.1351137,10.9784151 77.9531822,10.5313332 78.1542644,10.2854382 L78.9490178,9.74255302 C79.2777712,9.53817273 79.5777986,9.27631048 79.9352781,9.11983182 C80.621511,8.73981221 81.3396616,8.43004833 82.0897301,8.20331395 C83.5866753,7.74984518 85.1729904,7.59336652 86.7337712,7.79135992 C88.2913603,7.99254677 89.8553329,8.5258516 91.1416205,9.61800878 C91.7927438,10.1449267 92.3098123,10.898579 92.635374,11.7384543 C92.8811411,12.6006837 92.9577438,13.5810704 92.6417575,14.3985915 C92.5651548,14.6668407 92.1374562,14.7243226 91.6906068,14.5327161 C91.2437575,14.3411096 90.9181959,14.0568932 90.959689,13.8972211 C91.7895521,11.642651 89.0350452,9.76171367 86.5135384,9.53178584 C85.2144836,9.3689203 83.8707438,9.49985142 82.6036068,9.87987103 C81.9716342,10.074671 81.3651959,10.3333398 80.7842918,10.6558774 C80.474689,10.7836151 80.2289219,11.013543 79.9448534,11.1859888 C79.7661137,11.3009527 79.877826,11.2434708 79.8522918,11.230697 C80.1874288,13.4309786 82.5078534,15.7558044 84.770826,16.7968665 C85.9422096,17.3301713 87.231689,17.5249713 88.2913603,17.1066304 C89.3382644,16.6882895 90.2096205,15.7462241 90.7107301,14.5199423 C90.8032918,14.3474965 91.2405658,14.3506899 91.6906068,14.5327161" id="Fill-101" fill="#CC5E5E"></path>
                    <path d="M73.4125548,66.6164786 C72.9465548,68.2163931 72.6465274,69.9536256 72.7422808,71.6237958 C72.7997329,72.6456972 74.3956233,72.6552776 74.3381712,71.6237958 C74.2488014,70.0781698 74.5232945,68.5197701 74.9478014,67.0412064 C75.2350616,66.0512394 73.6966233,65.629705 73.4125548,66.6164786" id="Fill-103" fill="#CC5E5E"></path>
                    <path d="M73.7304562,69.1364238 C73.3410589,69.0629746 73.063374,68.7468238 72.9963466,68.2486469 C72.9420863,68.0091387 71.8824151,67.744083 71.9079493,67.1437159 C72.0100863,65.4735457 75.4731685,65.6268309 76.1913192,66.5146078 C77.1041685,67.5939912 75.9104425,67.7313092 74.9114151,68.1496502 C74.285826,68.408319 74.8858808,69.015073 74.0719767,69.1396172 C73.9411137,69.1491975 73.8357849,69.1587778 73.7304562,69.1364238" id="Fill-105" fill="#CC5E5E"></path>
                    <path d="M141.088522,32.4523968 C141.03107,31.9606068 141.273645,31.5486527 141.627933,31.5326855 C146.236864,31.2005676 150.772385,32.3278526 154.880207,34.1640818 C158.997604,36.0194716 162.751138,38.6285138 165.96207,41.7900214 C172.358399,48.0332006 176.657727,57.0546744 175.716152,66.2422072 C175.700193,66.5902924 175.288453,66.832994 174.796919,66.775512 C174.305385,66.7180301 173.915988,66.4114596 173.928755,66.0857286 C174.809686,57.5113366 170.804001,49.0295545 164.701316,43.0673982 C158.627358,37.1371763 150.255316,32.8324164 141.774755,33.3210131 C141.452385,33.3337868 141.149166,32.9441869 141.088522,32.4523968" id="Fill-107" fill="#CC5E5E"></path>
                    <path d="M174.306023,69.7725574 C174.791174,69.877941 175.174188,69.9992918 175.167804,70.0408065 C174.685845,72.1931865 173.801722,74.2657304 172.566503,76.0955727 C172.54416,76.133894 172.193064,75.9359006 171.781325,75.6580711 C171.372777,75.3770482 171.05679,75.1279597 171.079133,75.0960253 C172.189873,73.4450158 172.981434,71.5928194 173.418708,69.6448197 C173.428284,69.6096919 173.824064,69.6671738 174.306023,69.7725574" id="Fill-109" fill="#CC5E5E"></path>
                    <path d="M168.040877,79.6553025 C168.353671,80.041709 168.474959,80.4504696 168.31537,80.568627 C164.204356,83.7237477 159.215603,85.4034982 154.220466,86.1188293 C149.20937,86.8118062 144.054644,86.6457472 139.123342,85.2597933 C138.931836,85.2055048 138.896726,84.780777 139.040356,84.3081476 C139.187178,83.8355182 139.448904,83.4906264 139.624452,83.5353346 C144.233384,84.838259 149.190219,85.0075114 153.968315,84.3464689 C158.733644,83.6662658 163.447904,82.0503841 167.214205,79.1507387 C167.361027,79.0421617 167.731274,79.268896 168.040877,79.6553025" id="Fill-111" fill="#CC5E5E"></path>
                    <path d="M131.843529,83.0700501 C131.419022,82.8177682 131.390296,82.2110142 131.664789,81.9459585 C132.951077,80.678162 134.055433,79.4167524 134.993816,77.9605428 C135.469392,77.2452118 135.874748,76.4851726 136.257762,75.7155531 C136.43331,75.3227597 136.628008,74.9395467 136.784405,74.5339795 C136.931227,74.1827009 137.0972,73.6941043 137.339775,73.4162748 L138.562227,73.4258551 C139.430392,73.4801436 140.285789,73.4577895 140.940104,73.2821502 C141.581652,72.9691929 141.517816,73.157606 141.2912,72.4358881 C140.981597,71.8227472 140.410268,71.1744785 139.810214,70.5964655 L139.344214,70.1621573 L139.076104,69.9290361 L138.552652,69.4979214 L137.499364,68.6548527 L137.234447,68.4440855 C137.311049,68.3834101 137.422762,68.3291216 137.512132,68.2684462 L138.093036,67.920361 L139.270803,67.20503 L139.771912,66.8409776 C140.103858,66.598276 140.407077,66.3268334 140.678378,66.049004 C141.227364,65.5061188 141.619953,64.7971747 141.600803,64.3532862 C141.61357,63.9892338 141.284816,63.7529191 140.541132,63.7177913 C140.368775,63.6954372 140.209186,63.7273716 139.985762,63.7465323 C139.51657,63.8072077 139.079296,63.9445257 138.632447,64.033942 L137.968556,64.1872273 C137.837693,64.1329387 137.968556,63.7784667 137.955789,63.5900536 L138.054734,62.242421 C138.112186,60.2209722 137.949405,58.6625725 137.76109,56.8486974 C137.658953,55.9736943 137.534474,55.1050781 137.378077,54.252429 C137.301474,53.8245078 137.208912,53.4061669 137.103584,53.0037932 C137.046132,52.8185735 136.998255,52.5950326 136.931227,52.4417474 L136.883351,52.3140097 C136.851433,52.215013 136.784405,52.0904688 136.733337,52.0010524 L136.420542,51.4102656 L137.432337,50.2031445 C137.65257,49.9572495 137.821734,49.6953872 138.006858,49.4399118 C138.383488,48.9321546 138.680323,48.3892694 138.862255,47.8783187 C139.206967,46.7957418 138.90694,46.4700107 137.710022,46.3390796 C137.068474,46.3263058 136.91846,46.371014 135.408748,46.7254861 C135.284268,46.7063255 135.083186,46.8500303 135.019351,46.703132 L134.831036,46.3167255 C134.687405,46.0612502 134.598036,45.7355191 134.518241,45.4034011 L134.237364,44.3208242 C133.892652,43.0530277 133.496871,41.7660706 132.912775,40.7313954 C132.75957,40.4503725 132.915967,40.0416119 133.292597,39.7190742 C133.650077,39.4061169 134.215022,39.4635989 134.428871,39.8468119 C135.175748,41.1848641 135.558762,42.5261098 135.9322,43.864162 L136.162008,44.7487455 C135.807721,44.8221946 137.103584,44.5028504 137.789816,44.5858799 C138.574995,44.6305881 139.548488,44.8126143 140.257063,45.6876174 C140.956063,46.6105222 140.774132,47.7122597 140.528364,48.4435579 C140.250679,49.2067906 139.874049,49.8582528 139.449542,50.4426527 C139.235693,50.7364493 139.034611,51.0430198 138.801611,51.3016886 L138.504775,51.6529672 L138.507967,51.6529672 L138.504775,51.6433869 L138.574995,51.8317999 C138.683515,52.0904688 138.725008,52.3108163 138.801611,52.5503244 C138.922899,53.016567 139.018652,53.4732292 139.101638,53.9298914 C139.267611,54.8368289 139.398474,55.740573 139.503803,56.6475106 C139.708077,58.3943234 139.848515,60.4061919 139.829364,61.9837522 L139.829364,61.9997194 L139.819789,61.9997194 C140.040022,61.9773654 140.327282,61.9358506 140.601775,61.9645916 C141.144378,61.9582047 141.7572,62.1114899 142.338104,62.4499948 C142.934967,62.8364013 143.340323,63.5836667 143.349899,64.2734502 C143.340323,65.6498237 142.615789,66.5376006 141.945515,67.262512 C141.594419,67.6233709 141.220981,67.9522954 140.831584,68.2397052 L140.247488,68.664433 L140.273022,68.6452724 L141.029474,69.3318624 C141.70294,69.9992918 142.36683,70.6922687 142.874323,71.6790423 C143.078597,72.1867996 143.3882,72.8318749 143.049871,73.6877174 C142.679625,74.4860779 141.967858,74.8054221 141.457173,74.9555139 C140.381542,75.2493105 139.414433,75.223763 138.498392,75.1790548 C138.326036,75.1854417 138.463282,75.1471204 138.40583,75.2077958 C138.236666,75.6389105 138.0292,76.0572514 137.837693,76.4819792 C137.422762,77.3122741 136.982296,78.1393756 136.465227,78.915382 C135.469392,80.4801686 134.192679,81.9236044 132.925542,83.1690468 C132.660625,83.4341025 132.261652,83.3191386 131.843529,83.0700501" id="Fill-113" fill="#CC5E5E"></path>
                    <path d="M160.510189,62.771255 C160.02823,62.8830255 159.59734,62.8415108 159.549463,62.6850321 C157.602477,54.0531582 147.940956,48.2027724 139.412518,50.3264114 C139.249737,50.3583458 139.016737,49.9974868 138.892258,49.5184705 C138.764586,49.0362608 138.809271,48.6179199 138.994395,48.582792 C148.525052,46.2356121 159.080271,52.6640109 161.288984,62.2443371 C161.340052,62.4263633 160.988956,62.6594846 160.510189,62.771255" id="Fill-115" fill="#CC5E5E"></path>
                    <path d="M61.2285699,79.3934403 C61.0498301,79.8469091 60.8391726,80.1822205 60.7561863,80.1438992 C56.3962137,78.2278339 53.9800356,73.6963397 53.5906384,69.2830027 C53.581063,69.1999732 53.9640767,69.0977831 54.4492274,69.0594618 C54.9311863,69.0179471 55.3269671,69.0498815 55.3365425,69.1233306 C55.6621041,73.041684 57.8899671,76.9951653 61.4296521,78.524824 C61.4934877,78.553565 61.4041178,78.9399715 61.2285699,79.3934403" id="Fill-117" fill="#CC5E5E"></path>
                    <path d="M55.0007671,64.8575307 C54.5188082,64.8032422 54.1389863,64.6723111 54.1549452,64.5637341 C55.0454521,58.8762138 58.5436438,54.399008 62.0226849,50.3720776 C62.0929041,50.2922415 62.4408082,50.4934284 62.8014795,50.8191595 C63.1621507,51.1416971 63.4015342,51.4642348 63.3313151,51.5408774 C59.9384521,55.4241029 56.6413425,59.8278595 55.8944658,64.787275 C55.8816986,64.8798848 55.4795342,64.9118193 55.0007671,64.8575307" id="Fill-119" fill="#CC5E5E"></path>
                    <path d="M93.8693164,14.4142394 C99.4900425,9.81887628 91.9733986,3.17332337 84.396111,4.71575588 C83.4353849,10.9557417 86.7739877,20.2167236 93.8693164,14.4142394" id="Fill-121" fill="#FFECB8"></path>
                    <path d="M93.8693164,14.4142394 C94.182111,14.7878721 94.2619055,15.2125999 94.0576315,15.3594982 C92.812837,16.3590456 91.1594945,17.2116946 89.2667685,17.0967307 C87.3133986,16.9338652 85.880289,15.458495 85.0759603,14.0438001 C84.2397137,12.5812037 83.7992479,11.0036433 83.5566726,9.41650259 C83.4290014,8.62452896 83.3811247,7.822975 83.3651658,7.0182276 L83.3970836,5.81110651 L83.594974,3.98126421 C85.3472616,3.65872656 85.7175082,3.63317902 86.6463164,3.62998558 C87.4634123,3.59485772 88.2805082,3.71940196 89.0816452,3.85991341 C90.6903027,4.16329041 92.2447,4.77962472 93.6075904,5.74723766 C94.938563,6.70527028 96.2152753,8.03693562 96.5887137,9.88913201 C97.0036452,11.7541022 96.046111,13.6829412 94.7693986,14.7623246 C94.5778918,14.9475442 94.1757274,14.794259 93.8693164,14.4142394 C93.5660973,14.0342198 93.4352342,13.6158789 93.5756726,13.4753674 C94.5874671,12.5843971 95.1109192,11.406017 94.8651521,10.2372172 C94.6544945,9.05245019 93.7033438,7.96348645 92.5926041,7.17789971 C91.4690973,6.37634575 90.1285493,5.83984748 88.7465082,5.58437212 C88.0570836,5.46302132 87.3517,5.35125085 86.6495082,5.38637871 C86.0654123,5.34167052 84.8812616,5.53966393 85.1940562,5.4917623 L85.1972479,5.48856886 L85.1493712,5.9324573 L85.1206452,7.00864728 C85.1366041,7.72717174 85.1749055,8.4456962 85.2898096,9.15783378 C85.5068507,10.5757221 85.9122068,11.9776431 86.5952479,13.1592167 C87.2719055,14.3312099 88.2613575,15.263695 89.4295493,15.3499179 C90.5977411,15.4201736 91.9031795,14.8645147 92.9979603,13.9575772 C93.1703164,13.8362264 93.5597137,14.0406067 93.8693164,14.4142394" id="Fill-123" fill="#CC5E5E"></path>
                    <path d="M95.9015233,14.9944878 C103.482003,12.9985865 97.8963863,3.81744063 92.9108247,2.2207196 C89.9169342,5.21297481 87.0570986,17.3225071 95.9015233,14.9944878" id="Fill-125" fill="#B0E7FF"></path>
                    <path d="M95.9015233,14.9944878 C96.0291945,15.4607304 95.9366329,15.8790713 95.6940575,15.9237795 C94.2354137,16.3006056 92.2852356,16.3357335 90.794674,15.1254189 C89.3392219,13.854429 89.1157973,12.0054261 89.0934548,10.4821542 C89.0998384,8.90459382 89.4349753,7.40367606 89.9041671,5.95065992 C90.1435507,5.22574858 90.4180438,4.513611 90.7819068,3.82382752 C90.9478795,3.47574233 91.1393863,3.13404403 91.362811,2.80192606 C91.5702767,2.45384087 91.7490164,2.22391305 92.3331123,1.55329022 C92.4544,1.43513286 92.5501534,1.22436568 92.6937836,1.18604438 L93.1948932,1.39361811 L94.0534822,1.7417033 C94.4301123,1.89818196 94.755674,2.12810978 95.1067699,2.31971631 C95.7674685,2.75402443 96.3802904,3.23623418 96.9388521,3.77911933 C98.0527836,4.85850274 98.9879753,6.11033203 99.6614411,7.53780062 C100.309373,8.94610857 100.759414,10.6450197 100.239153,12.3822522 C99.7284685,14.1641929 98.0495918,15.2914779 96.5526466,15.6938516 C96.313263,15.7800746 96.022811,15.4639238 95.9015233,14.9944878 C95.7834274,14.5250518 95.8344959,14.0875503 96.0100438,14.0236814 C97.2644137,13.6692094 98.2698247,12.9219439 98.5698521,11.8489474 C98.8986055,10.7791443 98.6273041,9.46025274 98.0719342,8.27867918 C97.5101808,7.08433185 96.6867014,5.9794009 95.7227836,5.04372238 C95.2408247,4.5742864 94.7141808,4.16233237 94.1651945,3.80147342 C93.881126,3.65138164 93.6066329,3.45338824 93.3161808,3.33523088 C93.1055233,3.24900795 93.1693589,3.27455548 93.1693589,3.27455548 L93.1725507,3.27455548 C93.2746877,3.14362436 92.9970027,3.47574233 92.8374137,3.75676523 C92.6522904,4.02182092 92.4927014,4.31242415 92.3490712,4.61899459 C92.0298932,5.21297481 91.784126,5.8580501 91.5702767,6.50631884 C91.1489616,7.80285632 90.8489342,9.16964951 90.8489342,10.4917345 C90.8489342,11.7946589 91.1234274,13.1359045 91.9405233,13.7969471 C92.7352767,14.4420223 94.0279479,14.5537928 95.3206192,14.2057076 C95.5153178,14.1737732 95.7770438,14.5282453 95.9015233,14.9944878" id="Fill-127" fill="#CC5E5E"></path>
                    <path d="M130.197527,100.119518 C129.785788,100.419701 129.428308,100.627275 129.393199,100.582567 C127.580267,98.184292 125.221541,96.118135 122.760678,94.2627452 C122.712801,94.2244239 122.920267,93.8667584 123.223486,93.4579978 C123.526705,93.0492372 123.810774,92.7490536 123.861842,92.7873749 C126.418459,94.7226008 128.866555,96.8462398 130.867801,99.4840229 C130.906103,99.5319246 130.606075,99.8193344 130.197527,100.119518" id="Fill-129" fill="#CC5E5E"></path>
                    <path d="M131.949496,103.375232 C132.431455,103.209173 132.887879,103.336911 132.964482,103.659448 C133.136838,104.132078 133.092153,104.777153 133.057044,105.374327 C132.9964,105.96192 132.677222,106.498418 132.428263,107.006176 C131.757989,107.90992 130.937701,108.577349 130.066345,109.07872 C128.326825,110.091041 126.453249,110.595605 124.57329,110.918142 C122.693332,111.234293 120.778263,111.35245 118.856811,111.141683 C116.957701,110.921336 114.969222,110.525349 113.24566,109.228811 C112.843496,108.861566 112.387071,108.561382 112.11577,108.034464 L111.659345,107.287199 C111.512523,106.903986 111.534866,106.686831 111.47103,106.405809 C111.215688,105.355166 111.483797,104.164012 111.959373,103.170852 C113.073304,101.184531 115.061784,100.239272 116.906633,99.6740327 C118.802551,99.1279541 120.768688,98.9874427 122.712482,99.2173705 C124.640318,99.4600721 126.631989,100.060439 128.227879,101.475134 C128.476838,101.698675 128.37151,102.155337 127.991688,102.493842 C127.615058,102.832347 127.165016,102.985632 126.989468,102.838734 C124.582866,100.791737 120.61229,100.549036 117.423701,101.440006 C115.831003,101.906249 114.270222,102.758898 113.580797,104.039468 C113.306304,104.684543 113.089263,105.37752 113.287153,106.124786 C113.319071,106.290845 113.338222,106.552707 113.366948,106.584641 L113.638249,106.999789 C113.765921,107.32552 114.117016,107.526707 114.381934,107.782182 C115.594811,108.714667 117.340715,109.129815 119.041934,109.308647 C120.762304,109.500254 122.543318,109.39487 124.266879,109.101074 C125.984058,108.813664 127.707619,108.331454 129.140729,107.491579 C129.862071,107.076431 130.455742,106.559094 130.896208,105.990661 C131.215386,105.364746 131.381359,104.850602 131.173893,104.080983 C131.119633,103.857442 131.470729,103.541291 131.949496,103.375232" id="Fill-131" fill="#CC5E5E"></path>
                    <path d="M114.319695,108.483462 C114.603763,108.904996 114.667599,109.355272 114.469708,109.483009 C111.884366,111.16276 109.155393,112.670065 106.171078,113.701546 C103.256982,114.6979 99.7715575,115.327008 96.605311,113.80693 C95.8680096,113.414137 95.105174,112.979828 94.4891603,112.216596 C93.8986808,111.504458 93.5795027,110.731645 93.2635164,109.965219 C92.7081466,108.422787 92.4368452,106.845226 92.3059822,105.270859 C92.0729822,102.122125 92.3985438,98.9318768 93.4582151,95.9172675 C93.5348178,95.6841462 93.9848589,95.6426315 94.4604342,95.8246577 C94.9360096,96.0066839 95.2615712,96.3228346 95.1913521,96.5304084 C94.230626,99.2448341 93.9210233,102.230702 94.1412562,105.123961 C94.4349,107.911836 94.9902699,111.210662 97.4192151,112.15592 C99.8258178,113.340687 102.85801,112.909573 105.580599,111.957927 C108.338297,111.006281 110.968325,109.566039 113.464297,107.94377 C113.655804,107.819226 114.038818,108.058734 114.319695,108.483462" id="Fill-133" fill="#CC5E5E"></path>
                    <path d="M97.2637753,107.71033 C96.7945836,107.518723 96.4913644,107.215346 96.5871178,107.030127 C97.879789,104.801104 99.5427068,103.32254 101.285419,101.799268 C103.040899,100.330285 104.930433,99.0177804 106.995515,97.9543642 C109.04783,96.9164955 111.329953,96.0446858 113.861036,96.1692301 C116.411268,96.2011645 118.894474,98.0150396 119.89031,100.228095 C119.992447,100.39096 119.705186,100.703918 119.248762,100.927459 C118.792337,101.151 118.355063,101.230836 118.272077,101.106291 C117.394337,99.2572885 115.718652,98.0725215 113.752515,98.0054593 C111.783186,97.8968822 109.711721,98.6281805 107.82857,99.5957934 C105.926268,100.57618 104.132488,101.815236 102.46957,103.207576 C100.851337,104.58395 99.1788438,106.199832 98.2372685,107.847648 C98.1702411,107.965805 97.7329671,107.90513 97.2637753,107.71033" id="Fill-135" fill="#CC5E5E"></path>
                    <path d="M124.571695,100.783754 C124.092927,100.953006 123.61416,100.841236 123.508832,100.534665 L119.318023,88.568838 C118.491352,85.9438286 118.526462,85.9949237 115.896434,86.8379924 L109.828859,88.6550609 L103.758092,90.4721295 L100.722708,91.3822604 C99.8066671,91.7079915 98.3895164,91.9634669 98.2714205,92.260457 C98.1214068,92.4520635 98.0703384,92.672411 98.1437493,92.8863717 L98.6544342,94.3521616 L99.7045301,97.3412233 L101.804722,103.32254 C101.913242,103.629111 101.613215,104.015517 101.131256,104.181576 C100.652489,104.350829 100.176914,104.242252 100.071585,103.935681 L97.9713932,97.9543642 L96.9212973,94.962109 L96.3882699,93.4356437 C96.1233521,92.6372832 96.327626,91.7047981 96.8542699,91.0852703 C97.3585712,90.4210344 98.293763,90.1751393 98.6831603,90.0729492 L100.199256,89.6194804 L103.23464,88.7093494 L109.305407,86.8922809 L115.376174,85.0752124 L116.895462,84.6185502 C117.498708,84.3982027 118.417941,84.3918158 119.09779,84.7462879 C119.793599,85.0209239 120.412804,85.8991204 120.527708,86.4611662 L121.05116,87.9556971 L125.24516,99.9247179 C125.350489,100.231288 125.050462,100.614501 124.571695,100.783754" id="Fill-137" fill="#CC5E5E"></path>
                    <path d="M104.105358,112.391277 C104.600084,112.269926 105.050125,112.37531 105.107577,112.621205 L106.272577,117.430529 L106.850289,119.83519 L107.140741,121.039118 L107.214152,121.326528 L107.24607,121.403171 C107.290755,121.479813 107.351399,121.553262 107.42481,121.617131 C107.571632,121.748062 107.788673,121.827898 108.005714,121.837479 C108.107851,121.847059 108.235522,121.834285 108.312125,121.808738 L108.87707,121.620325 L111.219837,120.831544 L115.908563,119.250791 L125.282823,116.09567 L127.539412,115.329244 C127.916042,115.118477 128.1267,114.866195 127.951152,114.348857 L126.846796,109.520373 C126.789344,109.271284 127.146823,108.980681 127.641549,108.865717 C128.136275,108.753947 128.583125,108.862524 128.640577,109.108419 L129.741741,113.927323 C130.16944,114.993932 129.438522,116.619394 128.27033,117.018575 L125.844577,117.845676 L116.467125,121.007184 L111.778399,122.584744 L109.435632,123.373524 L108.826001,123.574711 C108.510015,123.664127 108.219563,123.692868 107.90996,123.676901 C107.306714,123.644967 106.706659,123.427813 106.231084,123.019052 C105.9917,122.814672 105.784234,122.56239 105.631029,122.278174 C105.554426,122.134469 105.49059,121.997151 105.429947,121.78319 L105.356536,121.470233 L105.066084,120.269499 L104.481988,117.861643 L103.320179,113.05232 C103.259536,112.806424 103.613823,112.512628 104.105358,112.391277" id="Fill-139" fill="#CC5E5E"></path>
                    <path d="M107.0169,122.52343 C106.847736,123.002446 106.649845,123.369692 106.576434,123.344145 C105.644434,123.00564 104.728393,122.647974 103.812352,122.239214 C103.355927,122.034833 102.899503,121.824066 102.433503,121.565397 C102.197311,121.431273 101.970695,121.306729 101.718544,121.115122 C101.501503,120.996965 101.054653,120.549883 100.930174,120.115575 L99.7907082,114.29393 C99.7779411,114.220481 100.17053,114.079969 100.67164,113.984166 C101.169558,113.885169 101.584489,113.869202 101.597256,113.939458 L102.695229,119.547142 C102.573941,119.454532 102.934612,119.748329 103.327201,119.955903 C103.710215,120.169863 104.137914,120.367857 104.559229,120.559463 C105.417818,120.939483 106.308325,121.290761 107.202023,121.613299 C107.269051,121.635653 107.182873,122.044414 107.0169,122.52343" id="Fill-141" fill="#CC5E5E"></path>
                    <path d="M98.2142877,106.281903 C97.7387123,106.457542 97.2727123,106.39048 97.1769589,106.131811 L93.4425753,95.9862459 L92.5105753,93.4474594 L92.0413836,92.1796629 C91.8977534,91.9082204 91.6168767,90.8958992 91.8881781,90.2795649 C92.1020274,89.5961683 92.6063288,89.0405094 93.2127671,88.7371324 C93.9245342,88.430562 94.1543425,88.430562 94.6458767,88.2613095 L97.2312192,87.4884965 L107.585356,84.3908578 L110.170699,83.6148513 L111.46337,83.2252514 L112.111301,83.0336449 C112.353877,82.9729695 112.446438,82.8963269 112.957123,82.832458 C114.262562,82.8420384 115.025397,83.1997039 115.941438,83.4711464 L118.498055,84.3908578 C118.756589,84.4834676 118.826808,84.9433232 118.657644,85.425533 C118.494863,85.9045493 118.143767,86.2175066 117.878849,86.1248968 C116.244658,85.5532707 114.332781,84.7389429 113.09437,84.6654938 L108.108808,86.1536378 L97.757863,89.2512766 L95.1725205,90.027283 C94.8150411,90.1390535 94.1479589,90.3146928 94.0394384,90.381755 C93.8415479,90.4807518 93.7011096,90.6500042 93.6436575,90.8288369 C93.461726,90.9821222 93.9692192,91.9752826 94.2373288,92.8183513 L95.1725205,95.3539443 L98.9037123,105.493123 C98.9994658,105.751792 98.689863,106.106264 98.2142877,106.281903" id="Fill-143" fill="#CC5E5E"></path>
                    <path d="M93.0528589,90.5050219 C93.2252151,90.0260056 93.3816123,89.6427926 93.4071466,89.6523729 L97.6585986,91.1500972 C97.6873247,91.162871 97.5756123,91.5588578 97.4032562,92.0346807 C97.2372836,92.5168904 97.0808863,92.89691 97.0521603,92.8873297 L92.7975164,91.3896054 C92.7719822,91.380025 92.8836945,90.9840382 93.0528589,90.5050219" id="Fill-145" fill="#CC5E5E"></path>
                    <path d="M112.140985,121.606593 C112.606985,121.405406 113.098519,121.517176 113.191081,121.836521 C113.803903,124.06235 113.963492,126.160441 114.164574,128.309628 L114.400766,131.461555 C114.455026,131.975699 114.509286,132.493037 114.595464,132.962473 L114.656108,133.253076 C114.656108,133.253076 114.646533,133.253076 114.668875,133.26585 C114.719944,133.297784 114.860382,133.454263 115.045505,133.527712 C116.555218,134.278171 118.792656,134.364394 120.793903,134.338846 C122.827067,134.287751 124.975136,134.096145 126.82956,133.594774 L126.893396,133.578807 C127.573245,133.47023 128.463752,132.98802 128.403108,132.952892 C128.49567,133.099791 128.294588,132.639935 127.445574,132.234368 C127.148738,132.001247 126.484848,132.01402 126.628478,131.487102 C126.599752,131.081535 126.590177,130.583358 126.599752,130.439653 L126.663588,129.136729 L126.845519,126.626684 C127.084903,123.315084 127.142355,120.009872 126.698697,116.778108 C126.660396,116.500279 127.037026,116.209676 127.538136,116.12984 C128.039245,116.050004 128.479711,116.228836 128.518012,116.525826 C128.987204,119.946003 128.923368,123.388533 128.683985,126.754421 L128.498862,129.261273 L128.435026,130.675968 C128.719095,130.819673 129.258505,131.145404 129.631944,131.554165 C130.0373,131.895863 130.506492,132.930538 130.101136,133.680997 C129.667053,134.501712 129.118067,134.702899 128.67441,134.92644 C128.202026,135.137207 127.758368,135.255364 127.308327,135.370328 L127.368971,135.354361 C125.131533,135.951534 123.021766,136.111207 120.832204,136.178269 C118.645834,136.155915 116.46904,136.238944 114.135848,135.127626 C113.832629,134.980728 113.58367,134.779541 113.248533,134.447423 C113.079368,134.278171 112.967656,134.009922 112.891053,133.773607 L112.782533,133.291397 C112.683588,132.716578 112.622944,132.180079 112.571875,131.640388 L112.3293,128.456526 C112.147368,126.390369 111.949478,124.241182 111.43241,122.373019 C111.365382,122.133511 111.671793,121.810973 112.140985,121.606593" id="Fill-147" fill="#CC5E5E"></path>
                    <path d="M108.843237,122.386431 C109.248593,122.693002 109.462442,123.095375 109.322004,123.283789 L103.857675,130.654253 C102.86184,131.912469 102.194758,133.062108 100.927621,134.409741 C99.5072781,135.648796 97.7198808,136.019235 96.1080315,136.108652 C94.4674562,136.198068 92.8779493,136.016042 91.3267438,135.735019 C90.5511411,135.594508 89.7851137,135.425255 89.0222781,135.230455 C88.2817849,135.054816 87.3497849,134.764213 86.5933329,134.163846 C85.8304973,133.627347 85.0931959,132.436193 85.4283329,131.232266 C85.7315521,130.053886 86.6220589,129.424778 87.4008534,128.996856 C87.6657712,128.856345 87.7200315,128.853151 87.6849219,128.862732 C87.697689,128.82441 87.6561959,128.945761 87.7040726,128.80525 L88.0711274,127.706706 L88.8084288,125.512811 C88.8818397,125.28927 89.3318808,125.244562 89.8106479,125.413814 C90.2894151,125.583067 90.6149767,125.899218 90.5447575,126.119565 L89.8202233,128.281525 L89.4563603,129.364102 C89.3382644,129.542935 89.3223055,130.162463 89.009511,130.296587 C88.6264973,130.462646 88.3137027,130.583997 88.2466753,130.631899 C87.0944425,131.283361 86.8199493,132.027433 87.7296068,132.714023 C88.5818123,133.387839 90.2351548,133.614574 91.6554973,133.924337 C93.1109493,134.189393 94.5855521,134.349065 96.0058945,134.272423 C97.4134699,134.202167 98.7891274,133.844501 99.6987849,133.039754 C100.525456,132.164751 101.492566,130.695768 102.386264,129.552515 L107.856977,122.172471 C107.997415,121.984058 108.437881,122.079861 108.843237,122.386431" id="Fill-149" fill="#CC5E5E"></path>
                    <path d="M91.2137548,121.594138 C90.7381795,121.412112 90.3711247,121.217312 90.3998507,121.153443 L94.4917137,111.138809 C94.5172479,111.07494 94.9162205,111.189904 95.3822205,111.397478 C95.8450288,111.601858 96.1993164,111.819012 96.1737822,111.882881 L92.1170288,121.804906 C92.0914945,121.868774 91.6861384,121.776165 91.2137548,121.594138" id="Fill-151" fill="#CC5E5E"></path>
                    <path d="M94.5332068,111.798574 C94.8077,112.226495 94.8843027,112.65761 94.705563,112.756607 C93.5565219,113.360167 92.2638507,113.606062 90.948837,113.385715 C89.6561658,113.219656 88.2262479,112.226495 87.8336589,110.811801 C87.6996041,110.498843 87.6836452,110.090083 87.6230014,109.853768 C87.6006589,109.681322 87.5495904,109.537617 87.4857548,109.400299 C87.3421247,109.14163 87.0931658,108.940444 86.7995219,108.870188 C86.1898918,108.739257 85.749426,109.036247 85.6121795,109.793093 C85.4685493,111.453682 86.3526726,113.542194 87.9581384,114.362908 C89.5636041,115.289006 91.676563,115.308167 93.613974,114.790829 C93.7607959,114.752508 93.9969877,115.119754 94.1406178,115.605157 C94.2810562,116.093754 94.2523301,116.524868 94.0767822,116.569577 C91.8489192,117.15717 89.2667685,117.217845 87.0389055,115.956436 C84.7823164,114.659898 83.5598644,112.140272 83.7960562,109.499296 C83.9077685,108.806319 84.2524808,108.023926 84.9355219,107.519362 C85.6153712,107.011605 86.5058781,106.883867 87.2687137,107.088247 C88.0347411,107.283047 88.7113986,107.813159 89.0944123,108.509329 C89.2763438,108.863801 89.3976315,109.231047 89.4455082,109.604679 C89.5157274,109.898476 89.4965767,110.048568 89.5827548,110.236981 C89.9466178,111.725125 92.3021521,112.006148 93.8342068,111.134338 C93.9459192,111.070469 94.2619055,111.370653 94.5332068,111.798574" id="Fill-153" fill="#CC5E5E"></path>
                    <path d="M102.702889,59.0850649 C102.281574,58.8423633 102.038999,58.3952814 102.163478,58.088711 C103.050793,56.0257474 102.619903,53.4709938 101.770889,51.2291974 C100.899533,48.9586601 99.5334507,46.8382146 97.8258479,45.1041756 C96.1118616,43.4244251 93.9446425,42.0320843 91.723163,41.9841827 C89.5080671,41.9777958 87.7206699,43.6575463 86.8844233,45.9025361 C85.2534233,50.3286468 85.9619986,56.022554 89.1697384,59.4299566 C90.7847795,61.1256744 93.1052041,61.8952939 95.4703137,61.7962972 C97.8577658,61.7356218 100.334588,60.9883563 101.608108,59.1776747 C101.796423,58.912619 102.268807,58.8583305 102.702889,59.0850649 C103.130588,59.3086058 103.299752,59.8195566 103.034834,60.1995762 C101.228286,62.6840741 98.1992863,63.4696608 95.5405329,63.5494969 C92.7987932,63.6868149 89.8623548,62.7255888 87.9153685,60.6594318 C85.9460397,58.637983 84.9023274,55.965072 84.4873959,53.3049348 C84.0916151,50.6320238 84.2543959,47.8537292 85.2502315,45.2606542 C85.8087932,43.9928577 86.4982178,42.7186744 87.6344918,41.7638352 C88.2058205,41.2816254 88.7994918,40.837737 89.5495603,40.6365501 C90.2517521,40.2980453 90.9922452,40.2693043 91.7295466,40.2277896 C94.7170534,40.3172059 97.155574,42.0129237 99.0642589,43.8619266 C100.960177,45.7875722 102.437971,48.0804636 103.411464,50.6032828 C104.333889,53.0941676 104.921177,56.0033933 103.784903,58.7593338 C103.609355,59.1840616 103.121012,59.3277665 102.702889,59.0850649" id="Fill-155" fill="#CC5E5E"></path>
                    <path d="M63.4695192,61.8014067 C63.9163685,61.6034133 64.3408753,61.593833 64.4015192,61.6577018 C64.4302452,61.7375379 64.7334644,61.8940165 65.103711,61.9994001 C65.4388479,62.1335247 65.7803685,62.1910066 66.0995466,62.2101673 C66.7410945,62.2421017 67.2805055,62.0153673 67.7465055,61.5459313 C68.6753137,60.5751249 69.1413137,58.9305023 69.3647384,57.346555 C69.7732863,54.1435327 69.5434781,50.6435202 68.5189164,47.6448781 C68.3018753,46.958288 67.724163,46.1695078 67.6316014,46.2174095 C67.4209438,46.1535406 66.820889,46.4984324 66.4027658,47.0764454 C65.5314096,48.2771796 64.9536973,49.8739006 64.5259986,51.4482676 C63.7503959,54.5810342 63.2524781,58.1704631 64.1302178,61.0509478 C64.200437,61.2489412 63.9067932,61.5874461 63.4695192,61.8014067 C63.035437,62.0153673 62.5949712,61.9546919 62.4864507,61.6608952 C61.3948616,57.9341484 62.0332178,54.4341359 62.831163,50.9947988 C63.3067384,49.2895007 63.8716836,47.5873961 65.0111493,46.0066423 C65.6143959,45.2945047 66.4602178,44.2885705 68.0337658,44.508918 C68.860437,44.7516196 69.2402589,45.2945047 69.5115603,45.7064587 C69.7956288,46.1471537 69.9807521,46.5846553 70.1594918,47.0221569 C71.3340671,50.5062022 71.5287658,54.0349556 71.1042589,57.598837 C70.8233822,59.3520366 70.4244096,61.2265871 68.9913,62.7849868 C68.2731493,63.5514129 67.1049575,64.043203 66.0325192,63.9665604 C65.5026836,63.9378194 64.9888068,63.8356293 64.5291904,63.65999 C64.0983,63.5130916 63.5461219,63.356613 63.0322452,62.7562459 C62.7641356,62.4081607 63.0322452,61.9962067 63.4695192,61.8014067" id="Fill-157" fill="#CC5E5E"></path>
                    <path d="M98.0802329,52.370853 C100.272986,57.1705964 99.1590548,60.7696056 95.8587534,62.2801037 C92.5616438,63.7906018 88.1059178,61.1113039 85.9131644,56.3147539 C83.7172192,51.5086236 84.6045342,46.3863426 87.9048356,44.872651 C91.205137,43.3685398 95.8842877,47.5679161 98.0802329,52.370853" id="Fill-159" fill="#CC5E5E"></path>
                    <path d="M68.1853753,56.4903932 C67.8534301,59.8977959 66.4011699,62.6122216 64.9552932,62.5451594 C63.5285671,62.4780971 62.6252932,59.6391271 62.9700055,56.2444982 C63.3051425,52.8307086 64.885074,48.7175553 66.3213753,48.7910044 C67.7704438,48.867647 68.5268959,53.0829905 68.1853753,56.4903932" id="Fill-161" fill="#CC5E5E"></path>
                    <path d="M101.022736,54.8438545 C101.670667,56.2681296 101.061037,57.9414933 99.6470781,58.5865686 C98.2458863,59.225257 96.5765849,58.6025358 95.9286534,57.1782606 C95.2839137,55.7571789 95.8871603,54.0838153 97.2947356,53.4451269 C98.702311,52.7968581 100.368421,53.4291597 101.022736,54.8438545" id="Fill-163" fill="#FFFFFF"></path>
                    <path d="M69.0177918,57.2638449 C69.3880384,58.1899431 68.941189,59.2405855 68.0219562,59.6014445 C67.1059151,59.9463362 66.0813534,59.489674 65.7206822,58.5603824 C65.3536274,57.6278973 65.8068603,56.5900286 66.7165178,56.2355565 C67.6293671,55.877891 68.6666959,56.3505205 69.0177918,57.2638449" id="Fill-165" fill="#FFFFFF"></path>
                    <path d="M88.8291753,76.0751346 C90.9293671,79.9072651 79.0495589,81.8808123 76.8504219,79.3547996 C76.1737644,78.5787932 75.0502575,79.7124651 75.7205315,80.4852781 C78.9633808,84.2088316 93.5881205,81.4337304 90.2080247,75.2703872 C89.7132986,74.3698366 88.3376411,75.174584 88.8291753,76.0751346" id="Fill-167" fill="#CC5E5E"></path>
                </g>
            </g>
        </g>
    </g>
</svg>