<?xml version="1.0" encoding="UTF-8"?>
<svg width="232px" height="169px" viewBox="0 0 232 169" version="1.1" xmlns="http://www.w3.org/2000/svg" xmlns:xlink="http://www.w3.org/1999/xlink">
    <!-- Generator: Sketch 51.1 (57501) - http://www.bohemiancoding.com/sketch -->
    <title>Group 2</title>
    <desc>Created with Sketch.</desc>
    <defs>
        <path d="M0.349346339,0.20887931 L0.349346339,183.614052 L63.6563743,183.614052 C63.6563743,183.614052 62.7286816,180.159655 66.7273569,180.159655 C69.6607852,180.159655 70.0542548,183.614052 70.0542548,183.614052 L228.270642,183.614052 L228.270642,0.20887931" id="path-1"></path>
        <path d="M0.349346339,0.20887931 L0.349346339,183.614052 L63.6563743,183.614052 C63.6563743,183.614052 62.7286816,180.159655 66.7273569,180.159655 C69.6607852,180.159655 70.0542548,183.614052 70.0542548,183.614052 L228.270642,183.614052 L228.270642,0.20887931" id="path-3"></path>
        <polygon id="path-5" points="0 0.293447581 50.616338 0.293447581 50.616338 22.2050481 0 22.2050481"></polygon>
    </defs>
    <g id="Page-1" stroke="none" stroke-width="1" fill="none" fill-rule="evenodd">
        <g id="诊断过期" transform="translate(-844.000000, -443.000000)">
            <g id="Group-2" transform="translate(844.000000, 426.000000)">
                <g id="Group-4" transform="translate(4.000000, 0.000000)">
                    <mask id="mask-2" fill="white">
                        <use xlink:href="#path-1"></use>
                    </mask>
                    <g id="Clip-3"></g>
                    <path d="M106.717309,214.575716 C52.3257278,214.575716 8.08118497,170.456405 8.08118497,116.229078 C8.08118497,61.9985603 52.3257278,17.87925 106.717309,17.87925 C161.099294,17.87925 205.350235,61.9985603 205.350235,116.229078 C205.350235,170.456405 161.099294,214.575716 106.717309,214.575716" id="Fill-2" fill="#FFEBEB" mask="url(#mask-2)"></path>
                </g>
                <g id="Group-7" transform="translate(4.000000, 0.000000)">
                    <mask id="mask-4" fill="white">
                        <use xlink:href="#path-3"></use>
                    </mask>
                    <g id="Clip-6"></g>
                    <path d="M190.251876,116.229078 C190.251876,162.230284 152.849867,199.520543 106.717949,199.520543 C60.5764346,199.520543 23.174425,162.230284 23.174425,116.229078 C23.174425,70.224681 60.5764346,32.9344224 106.717949,32.9344224 C152.849867,32.9344224 190.251876,70.224681 190.251876,116.229078" id="Fill-5" fill="#FFD8D7" mask="url(#mask-4)"></path>
                </g>
                <polygon id="Fill-9" fill="#FFFCD7" points="90.0744387 163.227161 113.595841 162 138.454817 163.773657 143 172.501227 138.326513 172.501227 138.326513 186 91.8161708 186 91.8161708 171.68312 85 171.408236"></polygon>
                <path d="M176.128952,184.427954 L193.011506,184.427954 C194.139779,184.427954 194.142975,182.682529 193.011506,182.682529 L176.128952,182.682529 C175.000678,182.682529 174.997482,184.427954 176.128952,184.427954" id="Fill-10" fill="#CC5E5E"></path>
                <polygon id="Fill-12" fill="#FFE7A5" points="91.7251326 169.590253 98.5107558 169.590253 103.30512 161.505343 105.504135 161.308227 105.504135 183.362895 91.7251326 183.362895"></polygon>
                <path d="M155.752905,184.427954 L167.745207,184.427954 C168.870285,184.427954 168.873481,182.682529 167.745207,182.682529 L155.752905,182.682529 C154.624631,182.682529 154.621435,184.427954 155.752905,184.427954" id="Fill-14" fill="#CC5E5E"></path>
                <path d="M75.2475429,184.427954 L150.963335,184.427954 C152.091609,184.427954 152.094805,182.682529 150.963335,182.682529 L75.2475429,182.682529 C74.1192692,182.682529 74.116073,184.427954 75.2475429,184.427954" id="Fill-16" fill="#CC5E5E"></path>
                <path d="M40.8256075,184.427954 L67.1946095,184.427954 C68.3228831,184.427954 68.3260794,182.682529 67.1946095,182.682529 L40.8256075,182.682529 C39.6941376,182.682529 39.6941376,184.427954 40.8256075,184.427954" id="Fill-18" fill="#CC5E5E"></path>
                <path d="M68.2027044,183.558421 C68.4072639,179.736926 73.9655299,179.727388 74.1700895,183.558421 C74.2340143,184.677528 75.9887515,184.683886 75.9280229,183.558421 C75.7873882,181.00228 73.8664464,178.843548 71.1911913,178.843548 C68.5095437,178.843548 66.5854056,180.9991 66.4447709,183.558421 C66.3872386,184.680707 68.1387796,184.677528 68.2027044,183.558421" id="Fill-20" fill="#CC5E5E"></path>
                <path d="M172.929513,183.55556 C172.929513,184.137368 172.453273,184.61426 171.865164,184.61426 C171.283448,184.61426 170.807208,184.137368 170.807208,183.55556 C170.807208,182.976931 171.283448,182.500039 171.865164,182.500039 C172.453273,182.500039 172.929513,182.976931 172.929513,183.55556" id="Fill-22" fill="#CC5E5E"></path>
                <path d="M37.7572146,183.55556 C37.7572146,184.137368 37.2841706,184.61426 36.696062,184.61426 C36.1111496,184.61426 35.6349094,184.137368 35.6349094,183.55556 C35.6349094,182.976931 36.1111496,182.500039 36.696062,182.500039 C37.2841706,182.500039 37.7572146,182.976931 37.7572146,183.55556" id="Fill-24" fill="#CC5E5E"></path>
                <g id="Group-28" transform="translate(0.000000, 59.358561)">
                    <mask id="mask-6" fill="white">
                        <use xlink:href="#path-5"></use>
                    </mask>
                    <g id="Clip-27"></g>
                    <path d="M45.1859218,18.507545 C45.1859218,16.4632677 43.5206793,14.8068626 41.4686915,14.8068626 L36.6967012,14.8068626 C36.1149851,13.859437 35.7697909,12.7753024 35.7697909,11.6180444 C35.7697909,10.1460375 36.3099559,8.79484336 37.2049038,7.69481234 L46.8991078,7.69481234 C48.9542919,7.69481234 50.616338,6.03522798 50.616338,3.99730924 C50.616338,1.95303195 48.9542919,0.293447581 46.8991078,0.293447581 L9.14828575,0.293447581 C7.09629796,0.293447581 5.43105553,1.95303195 5.43105553,3.99730924 C5.43105553,6.03522798 7.09629796,7.69481234 9.14828575,7.69481234 L20.7218804,7.69481234 C21.6264171,8.79166408 22.1953483,10.1364997 22.1953483,11.6180444 C22.1953483,12.781661 21.8341729,13.8562578 21.2524567,14.8068626 L3.71467322,14.8068626 C1.66268543,14.8068626 -0.00255699413,16.4632677 -0.00255699413,18.507545 C-0.00255699413,20.548643 1.66268543,22.2050481 3.71467322,22.2050481 L41.4686915,22.2050481 C43.5206793,22.2050481 45.1859218,20.548643 45.1859218,18.507545" id="Fill-26" fill="#FFD8D7" mask="url(#mask-6)"></path>
                </g>
                <path d="M53.8665972,86.1153846 L24.9533861,86.1153846 C23.7292251,86.1153846 22.7351937,87.1009615 22.7351937,88.3186259 C22.7351937,89.5362903 23.7292251,90.5250465 24.9533861,90.5250465 L53.8665972,90.5250465 C55.0939544,90.5250465 56.0879858,89.5362903 56.0879858,88.3186259 C56.0879858,87.1009615 55.0939544,86.1153846 53.8665972,86.1153846" id="Fill-29" fill="#FFD8D7"></path>
                <path d="M29.710354,62.211965 C29.710354,62.971813 29.0838905,63.5917726 28.3199885,63.5917726 L19.5111437,63.5917726 C18.7440455,63.5917726 18.1239744,62.971813 18.1239744,62.211965 C18.1239744,61.4489377 18.7440455,60.828978 19.5111437,60.828978 L28.3199885,60.828978 C29.0838905,60.828978 29.710354,61.4489377 29.710354,62.211965" id="Fill-31" fill="#FFFFFF"></path>
                <path d="M14.9373205,62.211965 C14.9373205,62.971813 14.3140531,63.5917726 13.5437587,63.5917726 L10.5904304,63.5917726 C9.8233322,63.5917726 9.20326112,62.971813 9.20326112,62.211965 C9.20326112,61.4489377 9.8233322,60.828978 10.5904304,60.828978 L13.5437587,60.828978 C14.3140531,60.828978 14.9373205,61.4489377 14.9373205,62.211965" id="Fill-33" fill="#FFFFFF"></path>
                <path d="M68.8051961,70.1010313 C68.8051961,72.2184321 67.3189433,73.9288849 65.4906925,73.9288849 L37.2295149,73.9288849 C35.3980679,73.9288849 33.9150113,72.2184321 33.9150113,70.1010313 C33.9150113,67.9868099 35.3980679,66.276357 37.2295149,66.276357 L65.4906925,66.276357 C67.3189433,66.276357 68.8051961,67.9868099 68.8051961,70.1010313" id="Fill-35" fill="#FFFFFF"></path>
                <path d="M186.700844,140.523364 C186.700844,138.479087 188.366087,136.822681 190.424467,136.822681 L195.193261,136.822681 C195.771781,135.875256 196.120171,134.791121 196.120171,133.633863 C196.120171,132.161856 195.580006,130.810662 194.688254,129.710631 L184.994051,129.710631 C182.938866,129.710631 181.273624,128.051047 181.273624,126.013128 C181.273624,123.968851 182.938866,122.309266 184.994051,122.309266 L222.744873,122.309266 C224.79686,122.309266 226.462103,123.968851 226.462103,126.013128 C226.462103,128.051047 224.79686,129.710631 222.744873,129.710631 L211.168082,129.710631 C210.260349,130.807483 209.69781,132.152319 209.69781,133.633863 C209.69781,134.79748 210.058985,135.872077 210.637505,136.822681 L228.172093,136.822681 C230.22408,136.822681 231.889323,138.479087 231.889323,140.523364 C231.889323,142.564462 230.22408,144.220867 228.172093,144.220867 L190.424467,144.220867 C188.366087,144.220867 186.700844,142.564462 186.700844,140.523364" id="Fill-37" fill="#FFD8D7"></path>
                <path d="M178.023685,148.772643 L206.940092,148.772643 C208.164253,148.772643 209.151892,149.75822 209.151892,150.975884 C209.151892,152.193548 208.164253,153.182305 206.940092,153.182305 L178.023685,153.182305 C176.799524,153.182305 175.805492,152.193548 175.805492,150.975884 C175.805492,149.75822 176.799524,148.772643 178.023685,148.772643" id="Fill-39" fill="#FFD8D7"></path>
                <path d="M202.182804,124.869223 C202.182804,125.629071 202.802875,126.249031 203.57317,126.249031 L212.375622,126.249031 C213.149113,126.249031 213.769184,125.629071 213.769184,124.869223 C213.769184,124.106196 213.149113,123.486236 212.375622,123.486236 L203.57317,123.486236 C202.802875,123.486236 202.182804,124.106196 202.182804,124.869223" id="Fill-41" fill="#FFFFFF"></path>
                <path d="M216.955838,124.869223 C216.955838,125.629071 217.579105,126.249031 218.343007,126.249031 L221.296335,126.249031 C222.069826,126.249031 222.683505,125.629071 222.683505,124.869223 C222.683505,124.106196 222.069826,123.486236 221.296335,123.486236 L218.343007,123.486236 C217.579105,123.486236 216.955838,124.106196 216.955838,124.869223" id="Fill-43" fill="#FFFFFF"></path>
                <path d="M163.085086,132.758289 C163.085086,134.87569 164.568142,136.586143 166.402785,136.586143 L194.663963,136.586143 C196.49541,136.586143 197.978467,134.87569 197.978467,132.758289 C197.978467,130.644068 196.49541,128.933615 194.663963,128.933615 L166.402785,128.933615 C164.568142,128.933615 163.085086,130.644068 163.085086,132.758289" id="Fill-45" fill="#FFFFFF"></path>
                <path d="M91.2757409,97.4479296 C97.5243953,97.962973 103.165764,92.8252559 102.759841,85.2394929 C102.421039,79.0557925 100.132529,73.5651752 96.044535,72.43971 C91.5474216,71.2061492 85.0942076,75.1357398 82.741773,82.8741083 C81.5272008,86.8195952 81.9554973,90.536174 83.7517857,93.2767137 C83.7517857,93.2767137 76.8415091,96.4337391 80.9550734,99.527179 C85.0846189,102.668308 86.4014709,95.9250543 86.4014709,95.9250543 C87.7311078,96.761205 89.3547991,97.2698899 91.2757409,97.4479296 M142.671323,99.9373061 C146.788083,96.8979141 139.954517,93.6518688 139.954517,93.6518688 C141.805141,90.9526597 142.255811,87.2265431 141.101968,83.2651597 C138.861402,75.5045363 132.456131,71.4922844 127.959018,72.6431839 C123.842257,73.7241393 121.480234,79.1797844 121.05833,85.3698434 C120.543735,92.9492478 126.124375,98.1600884 132.373029,97.7213477 C134.309952,97.5751008 135.920858,97.0950295 137.266477,96.262058 C137.266477,96.262058 138.487441,103.027567 142.671323,99.9373061 M154.107479,94.9204017 C154.491028,99.1997131 153.765481,103.087973 151.601625,105.92707 C146.292666,100.016788 148.782539,109.990191 148.606746,110.460724 C143.051676,124.48453 124.024443,127.514384 112.28784,127.434902 C100.851684,127.349062 80.2998436,124.579908 74.9365484,110.486158 C74.7447739,110.012446 77.3529079,100.05494 71.967239,105.917533 C69.582842,102.665129 68.9787521,98.0074829 69.688318,92.9937578 C70.8133954,84.7943936 75.4735172,75.6857553 81.3386225,70.2714408 C93.8998562,58.7370115 106.5378,60.4347472 110.366898,67.9442075 C110.744055,68.7167726 110.891082,69.1014656 111.78603,69.1014656 C112.690567,69.1141827 112.834398,68.7390276 113.224339,67.972821 C117.142933,60.5046914 129.819231,58.9786368 142.233438,70.6688508 C148.462915,76.5378024 153.407502,86.453978 154.107479,94.9204017" id="Fill-47" fill="#FFFFFF"></path>
                <path d="M150.384176,104.809235 C145.08161,98.8957739 147.76965,108.970913 147.584268,109.454164 C142.991267,120.642052 124.293247,125.805203 112.601392,125.086686 C103.047822,124.508057 82.246675,122.99154 76.4359059,109.482778 C76.2409351,109.018603 78.9193864,99.3090803 73.5241288,105.155777 C71.1269468,101.900194 71.1780867,97.5572968 71.8748676,92.5435717 C73.0159262,84.3505661 76.0395718,76.7902373 81.9014808,71.3822813 C94.4882844,59.8446728 106.538119,60.7793812 110.364022,68.2983793 C110.747571,69.0614066 110.891402,69.439741 111.789546,69.4556374 C112.694083,69.4556374 112.837914,69.0741238 113.224659,68.3142757 C117.149645,60.8556839 129.180302,59.9209755 141.591313,71.6175481 C147.814397,77.4801411 151.515646,85.654071 152.186857,94.1173154 C152.586387,98.3966269 152.551229,101.963779 150.384176,104.809235 M158.876593,109.377861 C160.621741,102.618711 159.749167,99.1405785 159.106722,96.4604451 L159.106722,97.388795 C158.879789,96.4509073 158.99805,96.028063 158.975676,95.7991548 C163.786022,96.6035127 162.788794,90.483398 158.358802,88.39779 C157.693983,85.8988756 156.81182,83.4858018 155.712313,81.209437 C148.034938,65.1095611 130.740069,54.5511709 111.824705,54.4208204 C92.9093406,54.2968285 75.4578556,64.6263105 67.572725,80.6212702 C66.4412551,82.8785592 64.7024991,88.5535748 64.0185031,91.0302342 C59.5821183,93.0681529 59.4734461,96.2728676 64.2869875,95.5352745 C64.1271754,96.4286523 61.790722,99.5570642 64.0185031,108.729288 C58.8054314,109.571797 60.3524128,113.371038 65.8915013,114.092734 C62.2158223,119.948969 65.4855785,122.212616 69.8324685,119.049232 C69.8324685,119.049232 71.9675586,122.390656 77.135883,126.091338 C81.17913,128.968587 87.1177489,132.052489 95.2777564,133.934623 C95.2777564,133.934623 98.2151034,134.465563 102.264743,134.917021 C98.9310617,138.522325 96.5083098,142.525039 96.418815,147.529226 C96.418815,147.529226 96.5722346,149.2365 95.0540194,148.35266 C94.3572385,148.667408 93.8330547,148.289074 91.9952152,149.198348 C91.9952152,149.198348 90.4929811,146.537291 88.3834609,146.867936 C86.6670786,150.260228 88.476152,160.386236 91.5573299,161.257359 C94.5841717,162.106227 107.541739,160.519766 114.266634,160.564276 C121.004314,160.618324 134.812082,162.697573 137.861297,161.890036 C140.964849,161.057064 142.828258,151.411127 141.15982,147.993401 C138.928842,147.144533 137.138947,149.303265 137.138947,149.303265 C135.039015,148.222309 132.434077,148.502086 132.136827,148.371735 C132.120846,143.211763 129.340114,138.274341 125.996845,134.554583 C125.862602,134.497356 125.731556,134.459204 125.597314,134.401977 C127.952945,134.014105 129.375273,133.670743 129.375273,133.670743 C136.55723,131.852194 141.872582,129.098938 145.615382,126.491928 C150.767725,122.90252 152.896423,119.599248 152.896423,119.599248 C157.224135,122.826217 160.538639,120.6039 156.936474,114.709515 C162.475562,114.057762 164.070487,110.280777 158.876593,109.377861" id="Fill-49" fill="#FFD3B6"></path>
                <path d="M145.973681,104.362229 C146.00884,108.927675 142.301198,112.66333 137.701805,112.698302 C133.112,112.730095 129.356415,109.042129 129.324453,104.479862 C129.289294,99.9080568 132.993739,96.1724023 137.58674,96.1406095 C142.182937,96.1056374 145.941718,99.7904234 145.973681,104.362229" id="Fill-51" fill="#FFE6E6"></path>
                <path d="M94.4093372,104.402605 C94.4444959,108.971231 90.7528356,112.703707 86.1502462,112.735499 C81.5572455,112.770471 77.8112491,109.092044 77.7728942,104.51706 C77.744128,99.9547922 81.4389845,96.2286756 86.028789,96.1937035 C90.6345747,96.1619107 94.3805711,99.8371588 94.4093372,104.402605" id="Fill-53" fill="#FFE6E6"></path>
                <path d="M139.955795,93.6505971 C139.955795,93.6505971 146.789362,96.8966424 142.672601,99.9392137 C138.485524,103.026295 137.264559,96.2607863 137.264559,96.2607863 C135.918941,97.0937578 134.308034,97.5738291 132.374308,97.720076 C126.125653,98.1588167 120.545013,92.9479761 121.059609,85.3717509 C121.481513,79.1785127 123.843536,73.7228676 127.9571,72.6450915 C132.454214,71.4910127 138.859484,75.5032646 141.10005,83.263888 C142.25709,87.2252714 141.803223,90.951388 139.955795,93.6505971" id="Fill-55" fill="#FFFFFF"></path>
                <path d="M86.4001924,95.9266439 C86.4001924,95.9266439 85.0865366,102.666718 80.9537949,99.5287686 C76.8434268,96.4321495 83.7505072,93.2783033 83.7505072,93.2783033 C81.9542188,90.5377636 81.5291186,86.8211849 82.7404945,82.8756979 C85.0961254,75.1373294 91.5461431,71.2077388 96.0464527,72.4381203 C100.131251,73.5667649 102.422957,79.0542029 102.758562,85.2410825 C103.164485,92.8236663 97.5231168,97.9645627 91.2744624,97.4495192 C89.3567168,97.2714795 87.7298293,96.7627947 86.4001924,95.9266439" id="Fill-57" fill="#FFFFFF"></path>
                <path d="M69.8321489,119.047643 C69.8321489,119.047643 71.967239,122.392246 77.1355634,126.092928 L77.103601,126.150155 C76.3492877,126.404498 78.7049185,127.205676 78.171146,127.316951 C64.4816387,130.372239 47.8771581,128.168998 46.6881558,115.191176 C44.6553455,92.8344758 63.5643171,83.5446185 63.5643171,83.6050248 L67.5724054,80.6196805 C66.4409355,82.8769696 64.9706638,88.1545751 64.2866679,90.6312345 C58.6932432,94.0775744 61.521918,95.1362748 64.2866679,95.5336849 C64.1268558,96.4302419 61.7904024,99.5554746 64.0181835,108.730878 C58.8051117,109.573387 60.3520932,113.372627 65.894378,114.091145 C62.2155027,119.947379 65.4852589,122.211027 69.8321489,119.047643" id="Fill-59" fill="#FFBF94"></path>
                <path d="M158.315652,96.1905242 C163.125997,96.9948821 163.68534,93.7075062 159.252151,91.6218983 C158.596922,89.1198046 156.810222,83.4861197 155.713911,81.209755 L156.129422,81.0221774 C156.129422,80.9617711 159.034807,83.3335143 159.411963,83.4002792 C170.704289,89.6189516 178.56385,102.037221 175.802296,114.747984 C173.00878,127.48736 162.259816,130.558545 148.61186,127.350651 C148.113246,127.207584 146.409648,126.743409 145.613784,126.492246 C150.769323,122.902838 152.898021,119.599566 152.898021,119.599566 C157.222537,122.826535 160.537041,120.604218 156.934875,114.709833 C162.47716,114.05808 164.072085,110.281095 158.878191,109.375 C160.623339,102.61585 159.939344,99.8594138 159.293703,97.1824597 C159.274525,100.822736 158.772715,97.9804591 158.772715,97.9804591 C158.542585,97.0425713 158.33483,96.4194324 158.315652,96.1905242" id="Fill-61" fill="#FFBF94"></path>
                <path d="M113.705374,88.7328862 C113.33461,88.3164004 112.318204,88.0461616 111.308192,88.0779544 L111.308192,88.0747751 L111.292211,88.0779544 L111.279426,88.0747751 L111.279426,88.0779544 C110.266217,88.039803 109.240223,88.2782491 108.856674,88.6979141 C107.846661,89.842455 109.192279,90.0141362 110.282198,90.4719525 C111.014137,90.7803427 110.323749,91.3971231 111.218697,91.54337 L111.317781,91.54337 C112.219121,91.4098403 111.570284,90.7803427 112.267065,90.4846697 C113.379357,90.0395704 114.71219,89.8901442 113.705374,88.7328862" id="Fill-63" fill="#CC5E5E"></path>
                <path d="M119.486098,154.091261 C118.239564,155.490144 116.689386,155.833507 114.266634,155.811252 C112.147525,155.795355 110.236172,155.248519 108.852199,154.09444 C109.453093,152.142362 106.65638,147.980684 106.697931,147.615067 C107.193349,143.151357 110.456713,139.361655 114.381699,139.390268 C118.070163,139.418882 121.10979,142.804815 121.825748,146.928342 C121.889673,147.268525 119.230399,153.045278 119.486098,154.091261" id="Fill-65" fill="#FFFFFF"></path>
                <path d="M168.026157,110.602838 C167.98141,118.903939 162.234565,123.701473 153.905157,123.644246 C152.393334,123.634708 150.926259,123.402621 149.551875,122.973418 C151.17237,121.170766 152.006589,121.043595 152.712958,119.501644 C159.968429,122.989315 158.958417,118.846712 157.264408,114.869432 C165.951796,111.311818 160.940087,109.70946 158.846548,109.525062 C161.007208,99.5421216 157.692705,95.5044355 158.434233,95.771495 C164.430384,97.7839795 168.080493,103.974038 168.026157,110.602838" id="Fill-67" fill="#FFFFFF"></path>
                <path d="M55.5583684,109.767641 C55.4944436,118.059204 60.2760226,123.015703 68.6118235,123.076109 C70.1300387,123.085647 71.5907216,122.863097 72.965106,122.462508 C71.3797696,120.624884 70.5295691,120.497712 69.8519656,118.943044 C62.5517474,122.344874 63.6065075,118.218168 65.3644409,114.250426 C56.7313895,110.565641 61.7654717,109.045944 63.8558144,108.896518 C61.8453778,98.8658886 64.6420901,95.4894929 63.8941693,95.7215803 C57.8884293,97.6800171 55.5999196,103.142021 55.5583684,109.767641" id="Fill-69" fill="#FFFFFF"></path>
                <path d="M139.422023,85.6931762 C138.344889,90.7196185 134.333604,92.0612748 129.66709,91.3904467 C125.291434,90.7863834 122.242218,86.5738368 122.2582,81.4520161 C122.309339,76.3238368 125.905112,72.2066687 130.306339,72.232103 C134.717153,72.2575372 140.662165,79.7797146 139.422023,85.6931762" id="Fill-71" fill="#CC5E5E"></path>
                <path d="M139.634253,87.6086926 C139.631057,88.9344525 138.384522,90.0313043 136.850326,90.0154079 C135.319326,90.0026908 134.08238,88.9153769 134.098361,87.5768998 C134.095165,86.2384228 135.348092,85.1511089 136.879092,85.1574674 C138.410092,85.1733638 139.647038,86.2670363 139.634253,87.6086926" id="Fill-73" fill="#FFFFFF"></path>
                <path d="M84.4182023,85.3205645 C85.4058413,90.3660825 89.4107333,91.7522488 94.0964251,91.1513648 C98.4529038,90.5918114 101.575633,86.4396712 101.626773,81.3051334 C101.665128,76.1960298 98.1045134,72.0120968 93.700091,71.9834833 C89.2924724,71.9516904 83.2483775,79.3943859 84.4182023,85.3205645" id="Fill-75" fill="#CC5E5E"></path>
                <path d="M94.793206,87.9100884 C94.7836173,89.2390276 96.0237594,90.3517757 97.5515634,90.3422379 C99.0825636,90.3708514 100.332295,89.2930754 100.341883,87.9387019 C100.357864,86.6002249 99.1241148,85.5033731 97.5899183,85.5033731 C96.0589181,85.4779389 94.7964022,86.5716114 94.793206,87.9100884" id="Fill-77" fill="#FFFFFF"></path>
                <path d="M65.149973,87.9844836 C64.6705366,89.4437733 60.6720371,92.5531095 60.7551394,93.9456343 C60.8989703,96.2315369 65.0892444,96.7942695 65.7476704,94.3430444 C79.1335347,44.8639035 146.254631,46.8509538 157.639647,95.5352745 C160.83589,96.5303893 165.230723,95.1378645 159.039601,91.3608793 C145.653737,44.4664935 80.5302927,41.0900977 65.149973,87.9844836" id="Fill-79" fill="#FFD3B6"></path>
                <path d="M122.488968,135.14275 C122.488968,135.14275 133.81006,148.390811 125.285681,157.397712 C125.285681,157.397712 127.944954,157.728358 129.543076,156.339012 C131.141197,154.946487 134.075348,146.934701 129.680514,140.44261 L126.212591,134.614989 L122.488968,135.14275 Z" id="Fill-81" fill="#FFD3B6"></path>
                <path d="M106.161282,135.14275 C106.161282,135.14275 94.8369945,148.390811 103.36457,157.397712 C103.36457,157.397712 100.7021,157.728358 99.1039785,156.339012 C97.5058571,154.946487 94.5749026,146.934701 98.9697363,140.44261 L102.434463,134.614989 L106.161282,135.14275 Z" id="Fill-83" fill="#FFD3B6"></path>
                <path d="M111.255134,93.3279001 C110.769305,93.3247208 110.376167,93.3056452 110.376167,93.2802109 L110.395345,89.7353133 C110.395345,89.709879 110.788483,89.6939826 111.277508,89.6971619 C111.760141,89.7003412 112.153278,89.7225962 112.153278,89.7448511 L112.130905,93.292928 C112.130905,93.315183 111.737767,93.3310794 111.255134,93.3279001" id="Fill-85" fill="#CC5E5E"></path>
                <path d="M155.406432,81.0918037 C155.579029,80.6498837 155.857102,80.3383142 156.036092,80.4273341 C164.752246,84.6621355 172.714086,91.5643533 176.031786,101.009995 C176.095711,101.188035 175.77289,101.455095 175.312631,101.604521 C174.849176,101.757126 174.427272,101.74123 174.36974,101.575907 C171.301347,92.7565834 163.659131,86.0641982 155.291367,82.0106157 C155.179499,81.9565679 155.058042,81.470138 155.406432,81.0918037" id="Fill-87" fill="#CC5E5E"></path>
                <path d="M177.530504,110.233406 C177.520916,108.554746 177.383477,106.898341 177.124581,105.238756 C176.948788,104.132367 175.257976,104.6029 175.430573,105.702931 C175.670291,107.20991 175.766178,108.71053 175.772571,110.233406 C175.778963,111.355692 177.533701,111.358871 177.530504,110.233406" id="Fill-89" fill="#CC5E5E"></path>
                <path d="M176.350451,114.055219 C176.829888,114.134701 177.171886,114.395402 177.114353,114.640206 C176.503871,117.80677 174.953693,120.830265 172.665184,123.147961 C170.392655,125.49427 167.445719,127.071193 164.380523,127.986825 C158.202186,129.818091 151.592356,129.309406 145.58342,127.3923 C145.350094,127.322356 145.286169,126.899511 145.445981,126.441695 C145.602597,125.983879 145.912633,125.66913 146.133173,125.729536 C151.851251,127.563981 158.141457,128.018618 163.865928,126.314524 C169.622361,124.759856 174.362389,120.134003 175.391579,114.303203 C175.442719,114.087011 175.874211,113.975737 176.350451,114.055219" id="Fill-91" fill="#CC5E5E"></path>
                <path d="M106.114297,135.518541 C106.079139,135.998612 105.350395,136.319719 104.477821,136.233879 C97.8552065,135.642533 91.2581616,134.186422 85.1021982,131.54444 C82.0338053,130.202784 79.0964583,128.555917 76.3732595,126.591121 C75.0020714,125.627799 73.7203781,124.527768 72.4898247,123.380048 C71.8825386,122.79506 71.2880374,122.197356 70.7318912,121.55832 C70.2236886,121.017843 69.3958618,119.933708 69.6291875,120.238919 C69.8561207,120.118106 68.4593627,120.973333 67.4141913,121.192703 C66.8580451,121.354846 66.2060116,121.380281 65.5379969,121.262647 C64.8508047,121.100504 64.1636126,120.636329 63.7928484,119.975039 C63.1663848,118.630203 63.4828129,117.418897 63.8024371,116.395169 C63.9622493,115.867408 64.1987712,115.390516 64.4289007,114.913624 L64.5151992,114.732405 L64.0996877,114.62431 C63.5818964,114.49078 63.0641051,114.303203 62.562295,114.058398 C61.6034222,113.549713 60.468756,112.958367 60.0276746,111.464105 C59.8199188,110.732871 60.1011881,109.779087 60.6189794,109.314912 C61.1048083,108.803047 61.6609546,108.516912 62.1979233,108.30708 L62.8979005,108.074992 L62.9618253,108.059096 C62.971414,108.046379 63.0001802,108.221239 62.8467606,107.518618 C62.4472302,105.537926 62.1659609,103.515904 62.1851383,101.452551 C62.1851383,100.422464 62.2778294,99.3860189 62.4536227,98.3559321 C62.536725,97.8408886 62.6613785,97.3258452 62.8052094,96.8235189 L63.0001802,96.2035592 C63.1088525,96.1940214 62.667771,96.2321728 62.4088753,96.1876628 C62.114821,96.1654079 61.8271592,96.1336151 61.5075349,96.0382367 C60.9322112,95.8824519 60.0947956,95.5136554 59.7975451,94.5694091 C59.5482382,93.6474178 59.9445722,92.9257212 60.2801777,92.4265741 C61.034491,91.4378179 61.9645976,90.8464718 62.9042929,90.3377869 C63.2526834,90.1629265 63.10246,90.2392292 63.1376187,90.2233328 C63.0864788,90.3759383 63.2271135,89.9499147 63.2910383,89.7559786 L63.7544935,88.3284817 C65.8448362,80.6091889 70.1118201,73.3667882 75.9130006,67.7553583 C81.6981998,62.1089563 88.9344932,58.0076846 96.6789892,55.7186027 C97.5227972,55.4737981 98.3090729,55.6518378 98.4305301,56.119192 C98.5487911,56.5897255 97.9894486,57.1588167 97.1807992,57.3972627 C89.6951989,59.6068626 82.714605,63.5650667 77.143554,69.0048154 C71.5501293,74.4413849 67.4845087,81.2927342 65.4293246,88.8562422 L64.9754582,90.2487671 L64.6654227,91.1930133 C64.6494414,91.4823279 64.3777608,91.5490927 64.1604163,91.6667261 L63.7257273,91.8829172 C62.9266666,92.3025822 62.1627646,92.8398806 61.7120944,93.4407646 C61.4947499,93.7364377 61.4468063,94.0162143 61.4787687,94.0639035 C61.4595913,94.1052342 61.6289921,94.2641982 61.9805788,94.3563973 C62.1435872,94.4104451 62.3449505,94.4295208 62.54951,94.4485965 C62.7828357,94.47721 62.8371719,94.4613136 63.4508504,94.4422379 C64.0101929,94.3563973 64.3681721,94.4040865 64.8380198,94.3818316 L65.1672328,94.375473 C65.2982787,94.3563973 65.4037547,94.3595766 65.3206524,94.5185406 L65.170429,95.1543967 C65.0745417,95.5804203 64.9371033,96.0350574 64.7549174,96.5087702 L64.4960218,97.3067695 C64.3681721,97.7518688 64.2563036,98.2001473 64.1859863,98.661143 C64.0261741,99.5767757 63.9398756,100.517843 63.9430718,101.465268 C63.9238944,103.360119 64.1891825,105.277225 64.5695354,107.168897 L64.7677024,108.074992 C64.8124498,108.513733 65.1288778,109.136872 64.946692,109.426186 L63.5531302,109.721859 C63.1216374,109.817238 63.0864788,109.864927 62.8339756,109.938051 C62.0125412,110.240082 61.5842447,110.720154 61.7376644,111.063516 C61.8207667,111.53087 62.562295,112.138113 63.3198045,112.484654 C63.7097461,112.672232 64.1348464,112.828016 64.5727316,112.939291 L64.9019446,113.028311 C65.0841304,113.082359 65.3909697,113.126869 65.6147067,113.171379 L67.0753896,113.435259 C67.2192205,113.950302 66.1548717,115.206118 65.9950596,115.702086 C65.8000888,116.115392 65.5955293,116.528699 65.4676796,116.948364 C65.1768215,117.765439 65.0969154,118.658817 65.3366336,119.142067 C65.5507819,119.549015 66.1772454,119.711158 67.0050723,119.491788 C67.8904315,119.234266 68.2420182,119.08802 70.0958389,117.838562 C71.2528788,119.545836 71.4542421,119.714338 72.0487432,120.404242 C72.5697308,120.998767 73.1354657,121.564679 73.7075931,122.117874 C74.877418,123.208367 76.0919902,124.257529 77.4152346,125.179521 C80.0201724,127.058475 82.8456509,128.648116 85.8053716,129.942083 C91.750383,132.491866 98.165242,133.916183 104.637633,134.491633 C105.484638,134.577474 106.14626,135.03529 106.114297,135.518541" id="Fill-93" fill="#CC5E5E"></path>
                <path d="M109.988144,53.5837159 C108.322901,53.6409429 106.67364,53.7681141 105.021182,53.9684088 C103.915283,54.1019386 103.902498,55.8473635 105.021182,55.7138337 C106.67364,55.5135391 108.322901,55.3863679 109.988144,55.3291408 C111.113221,55.2909895 111.119613,53.5455645 109.988144,53.5837159" id="Fill-95" fill="#CC5E5E"></path>
                <path d="M114.769723,54.5400434 C114.801685,54.0599721 115.568783,53.742044 116.492497,53.8310639 C125.425996,54.6799318 134.142149,57.8655707 141.445564,63.0827699 C148.755371,68.2681762 154.630065,75.5550868 157.816719,83.9483871 C158.548658,86.0467122 159.191103,88.1736507 159.881492,90.2846929 C160.009341,90.6757444 159.926239,90.4118641 159.948613,90.4913462 C159.881492,90.4531948 160.108425,90.5740074 160.217097,90.6344138 C160.351339,90.7011787 160.482385,90.7711228 160.610235,90.8601427 C161.121634,91.1907878 161.629836,91.5500465 162.074114,92.0364764 C162.515195,92.5070099 162.940296,93.085639 163.087323,93.8963555 C163.28549,94.6975341 162.850801,95.7594138 162.150824,96.1886166 C161.482809,96.6400744 160.782832,96.7831421 160.143583,96.8308313 L159.667343,96.8435484 L159.721679,96.9929746 C159.939024,97.5366315 160.111621,98.0993641 160.252256,98.6684553 C160.808402,100.947999 160.795617,103.281591 160.514348,105.526163 C160.396087,106.591222 160.130798,107.901086 159.935828,108.718161 C159.91665,108.714981 159.958201,108.72134 160.015734,108.737236 C160.59745,108.924814 161.211128,109.134646 161.789648,109.570208 C162.355383,109.939004 162.965866,110.743362 162.914726,111.674891 C162.86039,112.587345 162.348991,113.220022 161.866358,113.687376 C160.849953,114.587112 159.683324,115.019494 158.526285,115.311988 L158.305744,115.362857 L158.30894,115.366036 L158.622172,116.049581 C159.069646,117.133716 159.507531,118.322767 159.258224,119.772519 C159.111197,120.487857 158.618976,121.282677 157.848681,121.648294 C157.081583,122.017091 156.343251,121.956684 155.678432,121.870844 C155.032791,121.727776 154.431898,121.511585 153.888537,121.228629 L153.214129,120.856653 L153.102261,120.78353 C153.313213,120.51647 152.642002,121.387593 152.133799,121.93125 C151.619204,122.513058 151.069451,123.059895 150.516501,123.597193 C149.391423,124.652714 148.224795,125.663725 146.971867,126.557103 C144.491583,128.372472 141.832309,129.939857 139.041989,131.211569 C133.46135,133.761352 127.45561,135.258793 121.401926,135.996386 C120.487801,136.117199 119.711114,135.821526 119.666366,135.341455 C119.621619,134.861383 120.299222,134.378133 121.190974,134.263679 C127.091238,133.541982 132.921185,132.085872 138.303657,129.625109 C140.994894,128.397906 143.548692,126.890927 145.9235,125.15504 C147.118895,124.299814 148.231187,123.336492 149.298732,122.338198 C149.822916,121.829513 150.343903,121.31129 150.820144,120.770813 C151.328346,120.195363 151.603223,119.918766 152.667572,118.370456 L153.923695,119.225682 C154.367973,119.527714 154.419113,119.511818 154.684401,119.670782 C155.122286,119.89969 155.566564,120.052295 155.998057,120.150853 C156.915378,120.281203 157.401207,120.084088 157.541842,119.397364 C157.682477,118.66295 157.413992,117.655118 157.011266,116.745844 C156.867435,116.459708 156.883416,116.40884 156.611735,115.925589 L155.809478,114.501272 L155.608115,114.145192 C155.486658,113.998945 155.809478,114.06571 155.886188,114.014842 L156.70123,113.878133 L157.516272,113.741424 C157.637729,113.725527 157.823111,113.687376 157.925391,113.658762 L158.107577,113.614252 C160.038107,113.258173 162.093291,111.633561 160.728496,110.965912 C160.428049,110.727466 159.983771,110.565323 159.520316,110.415896 L157.979727,110.069355 C157.787953,110.082072 157.835896,109.939004 157.877447,109.795937 L157.973335,109.395347 L158.158717,108.594169 C158.475145,107.277947 158.634957,106.4259 158.772395,105.313151 C159.037683,103.211647 159.037683,101.081529 158.545462,99.0849411 C158.420809,98.585794 158.270585,98.0993641 158.085203,97.6192928 C157.823111,96.9230304 157.158293,95.5845533 157.372441,95.0313586 C157.851877,95.0377171 158.286566,95.0091036 158.807554,95.0377171 C159.111197,95.0854063 159.38927,95.104482 159.64497,95.0981234 C159.795193,95.0981234 159.894277,95.1108406 160.009341,95.0885856 C160.466404,95.0631514 160.875523,94.9328009 161.121634,94.7706576 C161.537145,94.5385701 161.450847,93.9408654 160.782832,93.2255273 C160.488778,92.8917029 160.089247,92.6055676 159.676932,92.3448666 C159.421233,92.1700062 159.370093,92.1731855 158.893853,91.9093052 L158.526285,91.7153691 C158.443182,91.62317 158.430397,91.464206 158.382454,91.3433933 L158.193875,90.7679435 C157.516272,88.7077699 156.893005,86.6221619 156.17385,84.5778846 C153.115046,76.5120502 147.470481,69.5080955 140.41957,64.5007289 C133.375051,59.4711073 124.956148,56.3935639 116.323097,55.5733096 C115.437737,55.4842897 114.740956,55.023294 114.769723,54.5400434" id="Fill-97" fill="#CC5E5E"></path>
                <path d="M139.958991,93.6505971 C139.549872,93.3676411 139.463574,92.833522 139.680918,92.4074984 C142.119651,87.7562112 140.460802,81.6233793 137.168672,77.5507212 C135.487448,75.5032646 133.179761,73.875473 130.664318,73.4367323 C128.11052,72.9089718 125.777263,74.3046759 124.434841,76.5778614 C123.038083,78.8065369 122.360479,81.5248217 122.047248,84.2208514 C121.714838,86.9168812 121.992911,89.612911 123.309763,91.9019929 C124.569083,94.1751783 126.74892,95.9206033 129.26756,96.5628179 C130.526879,96.9061802 131.82775,96.9188973 133.147798,96.7503955 C133.803028,96.6645549 134.442277,96.518308 135.059151,96.3148341 C135.369187,96.2099178 135.650456,96.098643 135.970081,95.9555754 C136.59974,95.6535437 137.25497,95.2434166 137.881434,94.8873372 C138.015676,95.5708824 138.146722,96.2766827 138.325711,96.9093595 C138.450365,97.3385623 138.530271,97.5229606 138.651728,97.8313508 C138.878661,98.3813663 139.169519,98.8900512 139.508321,99.2715648 C140.185925,100.079102 140.959415,100.005979 141.950251,99.3605847 C142.934693,98.6897565 143.417326,97.9839563 142.925105,97.1700605 C142.464846,96.2989377 141.410086,95.4945797 140.361718,94.8682615 C139.930225,94.6107398 139.754432,94.0861585 139.955795,93.6505971 C140.163551,93.2118564 140.767641,93.0687888 141.259862,93.3644618 C142.448864,94.1115927 143.666633,94.9064128 144.491263,96.3784197 C144.897186,97.0842199 145.053802,98.219223 144.587151,99.0490152 C144.165247,99.862911 143.561157,100.403389 142.915516,100.823054 C142.295445,101.252257 141.489992,101.598798 140.556689,101.614694 C139.588227,101.608336 138.728438,101.042424 138.20745,100.444719 C137.664089,99.8374767 137.309306,99.1666486 137.024841,98.4989997 C136.896991,98.1937888 136.746768,97.7582274 136.682843,97.5515741 C136.35363,97.7010003 135.976473,97.8504265 135.618494,97.9712391 C134.886554,98.2128645 134.138634,98.3813663 133.387516,98.4831033 C131.90446,98.6770394 130.309535,98.661143 128.829674,98.2541951 C125.828403,97.4911678 123.245839,95.4150977 121.775567,92.7508607 C120.234978,90.1025202 119.937727,86.8978055 120.302099,84.0269153 C120.640901,81.1496666 121.337682,78.2374457 122.942195,75.6495115 C123.760434,74.3809786 124.815194,73.1569556 126.263092,72.4034662 C127.701401,71.6340803 129.414587,71.4274271 130.948783,71.7103831 C134.055531,72.2635779 136.634899,74.158429 138.527075,76.4411523 C140.425643,78.7588477 141.665785,81.5121045 142.289052,84.4116083 C142.873965,87.3047534 142.70776,90.4999302 141.2279,93.2341114 C140.956219,93.7586926 140.345737,93.9240152 139.958991,93.6505971" id="Fill-99" fill="#CC5E5E"></path>
                <path d="M83.7377222,93.2779854 C83.3445844,93.545045 82.7372983,93.3701846 82.4720101,92.8392447 C81.0337009,90.0828086 80.9218325,86.8908111 81.5419035,84.0040245 C82.2035258,81.1140586 83.4756303,78.3735189 85.4029647,76.0812578 C87.3239065,73.8207894 89.9288443,71.9640896 93.0483771,71.4554048 C94.5889661,71.1947038 96.2925634,71.4204327 97.7244801,72.205715 C99.1659856,72.9751008 100.204764,74.2150202 101.003825,75.4930909 C102.576376,78.1032801 103.234802,81.0250388 103.538446,83.9054668 C103.864462,86.7858949 103.512876,89.9810717 101.933932,92.6103365 C100.428501,95.2491393 97.8171712,97.2934166 94.8127031,98.0214718 C93.323254,98.409344 91.7283289,98.4061647 90.2484685,98.1931529 C89.5005478,98.0850574 88.752627,97.9070177 88.0270799,97.6558545 C87.6659045,97.5318626 87.2919441,97.3792571 86.9627311,97.2234724 C86.89561,97.4269463 86.7357979,97.8593285 86.6047519,98.1645394 C86.3138938,98.829009 85.9495222,99.4902993 85.3997684,100.094363 C84.8691921,100.682529 84.0094029,101.235724 83.0345489,101.229366 C82.1044422,101.203931 81.3021853,100.841493 80.691703,100.405932 C80.0556507,99.9767292 79.4547571,99.4330723 79.045638,98.6128179 C78.5917716,97.7830257 78.7579762,96.6512019 79.1702915,95.948581 C80.0140995,94.4829327 81.2414567,93.704009 82.4400477,92.9759538 C82.9354653,92.6866393 83.536359,92.8360654 83.7377222,93.2779854 C83.9358893,93.7167261 83.7505072,94.2381281 83.3158182,94.4892913 C82.2610581,95.1028924 81.1967093,95.8913539 80.7300579,96.7561182 C80.2282478,97.5604761 80.704488,98.2726349 81.6761457,98.9593595 C82.6573922,99.6174705 83.4244905,99.7001318 84.1116826,98.9021324 C84.4600731,98.5269774 84.7541274,98.0182925 84.9938456,97.4746355 C85.1184991,97.1694246 85.1952089,96.9850264 85.3262548,96.5558235 C85.5180294,95.926326 85.6586641,95.223705 85.802495,94.543339 C86.4225661,94.9089563 87.0714033,95.3286213 87.6978669,95.6370115 C88.0079024,95.7832584 88.292368,95.8977125 88.6024036,96.005808 C89.2160822,96.2156405 89.8553307,96.3714252 90.5073642,96.4636244 C91.8274124,96.6480226 93.1282832,96.6512019 94.390799,96.323736 C96.9158307,95.7101349 99.1180419,93.9933235 100.41252,91.7360344 C101.761335,89.4692075 102.084155,86.7731777 101.786905,84.077148 C101.512028,81.3747596 100.86319,78.646937 99.5047873,76.4023651 C98.1879353,74.1069246 95.8706594,72.6953241 93.310469,73.181754 C90.7854373,73.5855226 88.4585726,75.1847007 86.7453866,77.206723 C83.405313,81.2380506 81.679342,87.3518068 84.0317766,92.0380661 C84.2427286,92.4672689 84.1468413,93.001388 83.7377222,93.2779854" id="Fill-101" fill="#CC5E5E"></path>
                <path d="M117.182566,100.617672 C116.706326,100.713051 116.306796,100.735306 116.284422,100.639927 C115.638781,98.1759848 114.056641,95.5435406 111.704206,95.4513415 C109.425285,95.2097162 107.814379,97.9661523 107.136776,100.40784 C107.114402,100.503218 106.714871,100.474605 106.238631,100.369688 C105.765587,100.264772 105.410804,100.064477 105.442767,99.9500233 C105.861475,98.4939128 106.462368,97.1077466 107.427634,95.8455723 C108.360936,94.61837 110.045356,93.5024426 111.822467,93.7059166 C113.548438,93.7822193 115.092223,94.8409197 116.028723,96.0871976 C116.993988,97.3461926 117.588489,98.7418967 117.988019,100.213904 C118.016786,100.328358 117.65561,100.522294 117.182566,100.617672" id="Fill-103" fill="#CC5E5E"></path>
                <path d="M67.0510982,81.7127171 C67.0319207,81.6554901 67.0127433,81.6014423 67.009547,81.541036 L67.0159395,81.4520161 C67.0159395,81.4520161 67.022332,81.4234026 67.0319207,81.4075062 C67.0574907,81.4075062 67.0287245,81.3725341 67.1885366,81.4075062 C67.3131901,81.3693548 67.4889834,81.7921991 67.3611337,81.8748604 C67.3004051,81.9670596 67.2780314,81.9702388 67.2620502,81.9893145 C67.220499,82.1355614 67.2652464,82.2118641 67.2524615,82.3072426 C67.246069,82.4884615 67.1885366,82.6219913 67.0798644,82.6760391 C61.3521975,85.5564671 56.1039671,89.6609181 52.3387932,94.8240695 C48.5448532,99.9617866 46.6239113,106.377574 47.1928425,112.729777 C47.21202,112.971402 46.8348633,113.203489 46.3490345,113.251179 C45.8664018,113.298868 45.460479,113.124007 45.4413015,112.866486 C44.8308192,106.129591 46.9019844,99.2146557 50.913269,93.8003412 C54.9021798,88.3478753 60.3166149,84.1257909 66.3063736,81.1086538 C66.4214384,81.0514268 66.5716618,81.0863989 66.7154927,81.1944944 C66.7826138,81.2676179 66.8593236,81.2739764 66.8976785,81.4551954 C66.8976785,81.4901675 66.891286,81.5156017 66.8721086,81.5887252 C66.8081837,81.6682072 66.9520147,81.9098325 67.0159395,81.8557847 C67.1086305,81.8303505 67.0766681,81.7699442 67.0830606,81.7286135 C67.0862568,81.7635856 67.1437892,82.062438 67.1246118,81.960701 L67.115023,81.8780397 L67.0510982,81.7127171 Z" id="Fill-105" fill="#CC5E5E"></path>
                <path d="M46.96527,116.554451 C47.4319215,116.4241 47.8698067,116.481328 47.9433203,116.681622 C49.5446379,122.099116 54.4572628,126.000093 60.0059401,127.25273 C65.5546174,128.616641 71.5283949,128.04755 76.9747924,126.216284 C77.1857444,126.149519 77.4925837,126.467447 77.6555921,126.922084 C77.8186005,127.376721 77.7738531,127.799566 77.5469198,127.866331 C71.8256455,129.789795 65.5418324,130.412934 59.5744473,128.947286 C56.6147266,128.196976 53.7093421,126.915726 51.3473187,124.874628 C48.9757067,122.862143 47.1826145,120.159755 46.2620967,117.199845 C46.1853868,116.974116 46.4986186,116.684801 46.96527,116.554451" id="Fill-107" fill="#CC5E5E"></path>
                <path d="M122.282811,141.436135 C122.768639,141.439315 123.161777,141.690478 123.161777,141.98933 C123.069086,143.944587 123.548523,145.896666 123.072283,148.160313 C122.698322,150.344479 121.327134,152.131234 120.82852,153.797177 C120.553643,154.658762 120.563232,155.342308 121.017099,155.749256 C121.454984,156.219789 122.365913,156.509104 123.254468,156.680785 C125.095504,156.976458 127.006857,156.92241 128.394027,155.965447 C129.793981,155.030738 130.506743,153.269417 130.73048,151.441331 C130.982983,149.594169 130.67934,147.657987 130.27981,145.791749 C129.372077,142.046557 127.604555,138.450791 125.066738,135.567184 C124.87816,135.341455 125.012402,134.893176 125.367185,134.562531 C125.718771,134.228707 126.172638,134.161942 126.380394,134.409926 C129.14834,137.563772 131.005357,141.359833 131.9898,145.39116 C132.421292,147.416362 132.753702,149.505149 132.472432,151.644805 C132.223125,153.733592 131.376121,156.060825 129.394451,157.405661 C127.41278,158.744138 125.012402,158.7346 122.931648,158.397596 C121.876888,158.165509 120.729437,157.927063 119.738601,156.954203 C119.22081,156.496386 118.968307,155.739718 118.891597,155.081607 C118.87242,154.426675 118.965111,153.809895 119.147297,153.285313 C119.85047,151.129761 121.071435,149.625962 121.352704,147.794696 C121.752234,146.112857 121.33033,144.033607 121.40704,141.992509 C121.40704,141.68094 121.800178,141.432956 122.282811,141.436135" id="Fill-109" fill="#CC5E5E"></path>
                <path d="M96.6006812,148.2789 C96.702961,148.749434 96.3929254,149.216788 95.9070965,149.321704 L91.6113464,150.243696 C91.4035906,149.944843 91.13191,149.566509 90.9561167,149.353497 L90.6173149,148.956087 C90.380793,148.701745 90.1378785,148.460119 89.8821791,148.256645 C89.3899578,147.833801 88.8082416,147.620789 88.6708032,147.75114 C88.5877009,147.741602 88.3607676,148.002303 88.3288052,148.075426 C88.2329179,148.329769 88.1146569,148.641338 88.0603208,148.975163 C87.9132937,149.626915 87.8877237,150.348612 87.878135,151.060771 C87.9516486,153.912585 88.5877009,157.002846 90.0068326,159.342796 C90.3871855,159.892812 90.789912,160.325194 91.2150123,160.420572 C91.7679623,160.566819 92.5734155,160.589074 93.2925701,160.614508 C94.7820191,160.646301 96.3066269,160.589074 97.8280384,160.528668 L106.994862,159.991369 C110.05047,159.822868 113.157218,159.606676 116.273555,159.778358 C119.364321,159.918246 122.416733,160.172588 125.475537,160.398317 C128.527949,160.617688 131.586753,160.859313 134.610399,160.932436 C136.013549,160.922899 137.889744,161.053249 138.47146,160.490516 C139.334446,159.702055 139.960909,158.274558 140.401991,156.923364 C140.545822,156.481444 141.018865,156.211205 141.495106,156.335197 C141.958561,156.459189 142.233438,156.961515 142.076822,157.457483 C141.546246,158.964462 141.009277,160.496875 139.615715,161.816276 C139.283306,162.118308 138.682412,162.452132 138.225349,162.503001 C137.749109,162.607917 137.346383,162.630172 136.94046,162.655606 C136.13181,162.700116 135.351927,162.696937 134.572044,162.681041 C131.4621,162.601559 128.406492,162.359933 125.344491,162.140563 C122.288883,161.918013 119.230079,161.660492 116.196845,161.523783 C113.185984,161.355281 110.159143,161.568292 107.097142,161.736794 L97.9047482,162.274093 C96.3641592,162.337678 94.820374,162.394905 93.2478227,162.363113 C92.4391733,162.321782 91.6944487,162.337678 90.7547534,162.10877 C89.6680309,161.809918 89.0159974,160.992843 88.5397572,160.309297 C86.8073937,157.397077 86.2352663,154.278203 86.1202015,151.073488 C86.1329865,150.265951 86.1553602,149.455234 86.3407423,148.612725 C86.4110596,148.19306 86.5516943,147.786112 86.7370764,147.331475 C87.0630931,146.743308 87.3859136,146.403125 88.0251621,146.123348 C89.3867615,145.655994 90.3456343,146.422201 90.9944716,146.899093 C91.3364695,147.178869 91.6337201,147.477722 91.9181857,147.782933 L92.356071,148.294797 L95.5427249,147.611252 C96.0253575,147.506335 96.5015977,147.805188 96.6006812,148.2789" id="Fill-111" fill="#CC5E5E"></path>
                <path d="M142.0439,153.634716 C141.561268,153.567951 141.180915,153.434422 141.196896,153.332685 C141.433418,151.666742 141.820164,149.755994 141.222466,148.865796 C140.992337,148.570123 140.912431,148.522433 140.759011,148.490641 C140.58961,148.455668 140.282771,148.503358 139.966343,148.630529 C139.643522,148.754521 139.311113,148.938919 138.985096,149.158289 L138.50566,149.501652 L138.243568,149.714663 L137.751347,150.143866 L131.889438,149.390377 C131.787158,149.37766 131.76798,148.983429 131.854279,148.506537 C131.934185,148.029645 132.081212,147.65449 132.180296,147.667207 L137.182415,148.31578 L137.431722,148.118665 L138.007046,147.705358 C138.406576,147.438299 138.834873,147.196673 139.320702,147.005917 C139.809727,146.821518 140.378658,146.656196 141.075439,146.77065 C141.800986,146.872387 142.389095,147.479629 142.663972,147.87386 C143.363949,148.938919 143.309613,150.023054 143.274454,150.935507 C143.207333,151.863857 143.053913,152.731801 142.938848,153.57431 C142.922867,153.672868 142.523337,153.698302 142.0439,153.634716" id="Fill-113" fill="#CC5E5E"></path>
                <path d="M106.301597,141.268587 C106.787426,141.271766 107.177368,141.526109 107.170975,141.834499 C107.215723,143.840625 106.765052,145.910337 107.110247,147.566742 C107.394712,149.38529 108.44308,150.990827 109.015207,153.120944 C109.264514,154.125597 109.459485,155.549915 108.548556,156.713531 C107.624842,157.794487 106.400681,158.064725 105.352313,158.261841 C103.268363,158.484391 100.909536,158.430343 98.9949866,157.047356 C97.0964184,155.670727 96.207863,153.394363 95.996911,151.32783 C95.7795665,149.223147 95.9745373,147.143897 96.4220112,145.140951 C97.4160427,141.176388 99.1675837,137.335817 102.194425,134.369549 C102.421359,134.137461 102.868833,134.245557 103.188457,134.607995 C103.508081,134.973612 103.607165,135.431428 103.408998,135.631723 C100.736939,138.229195 99.0429302,141.866292 98.1351973,145.528823 C97.7196858,147.382343 97.5566774,149.283553 97.7420595,151.111639 C97.9242453,152.936546 98.6817548,154.662895 100.033765,155.638935 C101.392169,156.634049 103.268363,156.71989 105.087025,156.532312 C105.962796,156.389245 106.790622,156.09993 107.167779,155.632576 C107.544936,155.200194 107.528954,154.405374 107.31161,153.550147 C106.889706,151.849232 105.742255,150.017967 105.387472,147.894208 C104.975157,145.633739 105.476967,143.738888 105.416238,141.802706 C105.422631,141.503854 105.818965,141.265408 106.301597,141.268587" id="Fill-115" fill="#CC5E5E"></path>
                <path d="M165.747556,118.088454 C165.36081,117.792781 165.117896,117.455777 165.197802,117.331785 C167.59818,114.158863 168.000907,109.815966 166.741587,106.032623 C165.520622,102.220665 162.816601,98.8506281 159.319912,96.8985499 C159.192062,96.8222472 159.271968,96.41212 159.502098,95.9860965 C159.729031,95.5600729 160.03587,95.2866548 160.182897,95.3756746 C164.095098,97.5693781 167.048426,101.263702 168.416418,105.498503 C169.822765,109.688795 169.388076,114.70252 166.616934,118.358693 C166.521046,118.50176 166.131105,118.384127 165.747556,118.088454" id="Fill-117" fill="#CC5E5E"></path>
                <path d="M58.0210734,117.914547 C57.6407205,118.2134 57.2507789,118.340571 57.1516954,118.194324 C54.3294131,114.579482 53.8212106,109.572115 55.1668287,105.359569 C56.474092,101.105692 59.3762803,97.3732165 63.2597151,95.122286 C63.4067423,95.0300868 63.7135816,95.3003257 63.9469073,95.72317 C64.1866255,96.1460143 64.2697278,96.5529622 64.1418781,96.6324442 C60.6739548,98.6353908 58.0146809,102.0404 56.8480524,105.868254 C55.6430689,109.673852 56.1097203,114.010391 58.5580422,117.148341 C58.6379482,117.272333 58.4014263,117.615695 58.0210734,117.914547" id="Fill-119" fill="#CC5E5E"></path>
                <path d="M137.371313,171.043184 L137.371313,182.965485 C137.371313,184.090951 139.129247,184.090951 139.129247,182.965485 L139.129247,171.043184 C139.129247,169.917719 137.371313,169.917719 137.371313,171.043184" id="Fill-123" fill="#CC5E5E"></path>
                <path d="M104.425722,177.001155 L104.425722,183.362895 C104.425722,184.485181 106.183656,184.488361 106.183656,183.362895 L106.183656,177.001155 C106.183656,175.87569 104.425722,175.87569 104.425722,177.001155" id="Fill-125" fill="#CC5E5E"></path>
                <path d="M104.425722,170.645774 L104.425722,173.62476 C104.425722,174.750225 106.183656,174.753404 106.183656,173.62476 L106.183656,170.645774 C106.183656,169.520309 104.425722,169.520309 104.425722,170.645774" id="Fill-127" fill="#CC5E5E"></path>
                <path d="M104.425722,161.107933 L104.425722,166.073969 C104.425722,167.199434 106.183656,167.202613 106.183656,166.073969 L106.183656,161.107933 C106.183656,159.982467 104.425722,159.982467 104.425722,161.107933" id="Fill-129" fill="#CC5E5E"></path>
                <path d="M89.3653467,161.064377 C87.498741,163.582367 85.6353315,166.097177 83.771922,168.615167 C83.3564105,169.1779 83.9253417,169.912314 84.5262353,169.92821 C89.3205993,170.06174 94.1149633,170.19527 98.9093273,170.32562 C99.2065778,170.335158 99.5325946,170.157118 99.670033,169.893238 C101.066791,167.244898 102.466745,164.593378 103.863503,161.945037 C104.387687,160.953102 102.875864,160.069262 102.348484,161.064377 C101.380023,162.902001 100.411561,164.736445 99.4430998,166.57089 C99.0691394,167.27987 98.7399264,168.370363 98.1901727,168.948992 C98.9956258,168.100124 98.5353669,168.656498 97.416682,168.538865 C93.1816604,168.096945 88.7868268,168.300419 84.5262353,168.182785 L85.2869411,169.495828 C87.1503505,166.977838 89.0169562,164.463027 90.8803657,161.945037 C91.5515767,161.042122 90.0269689,160.167819 89.3653467,161.064377" id="Fill-131" fill="#CC5E5E"></path>
                <path d="M92.5989854,182.76678 L92.5989854,169.455133 C92.5989854,168.329668 90.8410519,168.326489 90.8410519,169.455133 L90.8410519,182.76678 C90.8410519,183.892246 92.5989854,183.892246 92.5989854,182.76678" id="Fill-133" fill="#CC5E5E"></path>
                <path d="M106.744916,161.350194 C108.167244,163.648814 110.273568,169.288857 112.536508,170.69092 C113.997191,171.590656 116.256934,171.120123 117.976513,171.120123 L143.258792,171.120123 C143.923611,171.120123 144.3583,170.37935 144.016302,169.80708 C142.283938,166.894859 140.554771,163.979459 138.822408,161.064059 C138.247084,160.097557 136.732065,160.975039 137.310585,161.944719 C138.461232,163.88408 139.468049,166.386174 140.941516,168.061655 C141.14288,168.290563 142.331882,170.045526 142.379826,170.487446 C142.22321,169.05677 143.850097,169.451 142.517264,169.374698 C137.575873,169.094921 132.522613,169.374698 127.578026,169.374698 C123.825637,169.374698 117.407582,170.627334 113.834182,169.374698 C112.597236,168.942315 114.95926,170.249 113.62323,169.117176 C112.897683,168.503575 112.357518,167.072899 111.871689,166.293975 L108.259935,160.469533 C107.66863,159.51257 106.147219,160.390051 106.744916,161.350194" id="Fill-135" fill="#CC5E5E"></path>
            </g>
        </g>
    </g>
</svg>